<?xml version="1.0" encoding="UTF-8"?>
<svg xmlns="http://www.w3.org/2000/svg" width="112" height="160" viewBox="0 0 112 160" fill="none">
  <path d="M96.4813 43.4634C97.9318 40.0257 98.737 36.2493 98.737 32.2812C98.737 16.396 85.8614 3.52046 69.9762 3.52046C66.5193 3.52046 63.203 4.13388 60.1295 5.25211C55.6502 3.37988 50.73 2.34473 45.567 2.34473C24.6914 2.34473 7.76465 19.2714 7.76465 40.1471C7.76465 61.0227 24.6914 77.9494 45.567 77.9494C47.0686 77.9494 48.5447 77.8536 50.0016 77.6811C51.8674 81.3872 54.5 84.646 57.6885 87.2403L61.0368 108.301L75.5418 93.7963C75.7463 93.8027 75.9507 93.809 76.1552 93.809C92.3279 93.809 105.434 80.7035 105.434 64.5308C105.44 56.2559 102.002 48.7862 96.4813 43.4634Z" fill="url(#paint0_linear_543_16659)"></path>
  <path d="M82.7498 99.0364L82.4175 97.3047C84.6667 96.8766 86.8776 96.2121 88.9927 95.3303L89.67 96.9597C87.4463 97.8862 85.1204 98.5891 82.7498 99.0364ZM96.0215 93.5028L95.0247 92.0459C96.9097 90.7487 98.6733 89.2535 100.258 87.5985L101.536 88.819C99.8618 90.5634 98.0088 92.1353 96.0215 93.5028ZM37.5352 84.525C35.1774 84.1033 32.8387 83.4835 30.5831 82.6847L31.1709 81.017C33.3371 81.7838 35.5863 82.3716 37.8483 82.7806L37.5352 84.525ZM105.971 83.1193L104.475 82.1863C105.689 80.2438 106.705 78.1671 107.491 76.0201L109.146 76.6272C108.316 78.8828 107.248 81.0681 105.971 83.1193ZM24.0143 79.7646C21.9184 78.6208 19.8928 77.2981 17.995 75.8284L19.0749 74.4354C20.896 75.8476 22.8449 77.1192 24.8577 78.2182L24.0143 79.7646ZM12.6787 70.9913C11.0365 69.2405 9.5285 67.3555 8.19302 65.3683L9.65629 64.3778C10.9407 66.282 12.3975 68.0967 13.9694 69.7773L12.6787 70.9913ZM110.916 69.6175L109.172 69.3619C109.402 67.7772 109.517 66.1478 109.517 64.5312C109.517 63.8539 109.498 63.1701 109.453 62.4992L111.217 62.3906C111.261 63.0935 111.28 63.8155 111.28 64.5312C111.28 66.2309 111.159 67.9434 110.916 69.6175ZM4.64665 59.1062C3.63705 56.9337 2.79998 54.6589 2.15461 52.3585L3.85431 51.8793C4.47413 54.0902 5.27925 56.2755 6.2505 58.365L4.64665 59.1062ZM108.341 55.726C107.741 53.5215 106.897 51.3681 105.849 49.3297L107.421 48.5246C108.526 50.6716 109.408 52.94 110.041 55.2659L108.341 55.726ZM0.774402 45.2977C0.576317 43.598 0.480469 41.8664 0.480469 40.1475C0.480469 39.4702 0.493248 38.7865 0.525198 38.1091L2.2888 38.1858C2.25685 38.8376 2.24407 39.4958 2.24407 40.1411C2.24407 41.7961 2.33992 43.4575 2.52522 45.0933L0.774402 45.2977ZM102.105 43.5725C101.894 43.3105 101.677 43.0485 101.453 42.7929L101.133 42.4223L101.28 41.9558C101.958 39.7705 102.399 37.5085 102.603 35.2209L104.36 35.3743C104.162 37.6171 103.74 39.8472 103.108 42.007C103.236 42.1539 103.357 42.3073 103.478 42.4606L102.105 43.5725ZM3.14504 31.3359L1.41978 30.9781C1.90541 28.633 2.58273 26.3135 3.43897 24.077L5.08755 24.7032C4.25687 26.8502 3.6115 29.0803 3.14504 31.3359ZM102.494 28.3582C102.22 26.0835 101.708 23.8342 100.967 21.6681L102.635 21.0994C103.415 23.3805 103.958 25.7512 104.245 28.1538L102.494 28.3582ZM8.05244 18.4668L6.52527 17.585C7.72656 15.5146 9.10038 13.5274 10.6148 11.668L11.9822 12.7862C10.5253 14.5689 9.20261 16.4795 8.05244 18.4668ZM98.0726 15.4507C96.8969 13.4891 95.5039 11.6424 93.9448 9.96825L95.2356 8.76696C96.8841 10.5369 98.3474 12.4795 99.5871 14.5434L98.0726 15.4507ZM16.7554 7.78931L15.5797 6.473C17.3688 4.88193 19.2986 3.41865 21.3114 2.1279L22.2635 3.61674C20.3337 4.85637 18.4743 6.26214 16.7554 7.78931ZM88.7754 5.46341C86.8968 4.1471 84.884 3.02887 82.7817 2.13429L83.4655 0.504883C85.6827 1.44419 87.8105 2.62631 89.785 4.01291L88.7754 5.46341Z" fill="url(#paint1_linear_543_16659)"></path>
  <path d="M45.5738 5.67385C38.4619 5.69301 31.433 7.89112 25.6311 12.0254C19.9633 16.0701 15.599 21.7571 13.19 28.2939C10.698 35.0608 10.4296 42.6327 12.3977 49.5657C14.2955 56.2495 18.2508 62.3071 23.6183 66.7225C29.0624 71.2018 35.7654 73.9302 42.8006 74.5053C43.7271 74.582 44.6472 74.6139 45.5738 74.6203C46.7112 74.6267 46.7112 72.8567 45.5738 72.8567C38.8133 72.8376 32.2062 70.7545 26.679 66.8567C21.3115 63.0675 17.1134 57.6105 14.8578 51.438C12.5063 45.0034 12.2188 37.8915 14.0718 31.2908C15.861 24.9073 19.6182 19.182 24.7109 14.9391C29.8228 10.6835 36.2638 8.06365 42.89 7.53968C43.7782 7.46939 44.6728 7.43744 45.561 7.43744C46.7048 7.43105 46.7112 5.66746 45.5738 5.67385Z" fill="white"></path>
  <path d="M76.1618 90.5056C83.6507 90.4736 90.8968 87.119 95.6572 81.317C100.641 75.2466 102.571 67.0996 100.788 59.4381C99.6892 54.7224 97.1908 50.4029 93.7275 47.029C92.916 46.2367 91.6636 47.4827 92.4815 48.2751C98.2068 53.847 100.833 62.0644 99.2228 69.9239C97.8362 76.6652 93.4847 82.5502 87.4527 85.8602C83.9958 87.7579 80.1107 88.7228 76.1682 88.7356C75.0244 88.742 75.0244 90.5056 76.1618 90.5056Z" fill="white"></path>
  <path d="M59.7333 77.8152C60.9896 77.8152 62.0081 76.7967 62.0081 75.5404C62.0081 74.2841 60.9896 73.2656 59.7333 73.2656C58.477 73.2656 57.4585 74.2841 57.4585 75.5404C57.4585 76.7967 58.477 77.8152 59.7333 77.8152Z" fill="white"></path>
  <path d="M67.0432 77.8152C68.2995 77.8152 69.318 76.7967 69.318 75.5404C69.318 74.2841 68.2995 73.2656 67.0432 73.2656C65.7869 73.2656 64.7684 74.2841 64.7684 75.5404C64.7684 76.7967 65.7869 77.8152 67.0432 77.8152Z" fill="white"></path>
  <path d="M76.6279 75.5404C76.6279 76.7992 75.612 77.8152 74.3532 77.8152C73.0944 77.8152 72.0784 76.7992 72.0784 75.5404C72.0784 74.2816 73.0944 73.2656 74.3532 73.2656C75.612 73.2656 76.6279 74.2816 76.6279 75.5404Z" fill="white"></path>
  <path d="M81.6694 77.8152C82.9258 77.8152 83.9442 76.7967 83.9442 75.5404C83.9442 74.2841 82.9258 73.2656 81.6694 73.2656C80.4131 73.2656 79.3947 74.2841 79.3947 75.5404C79.3947 76.7967 80.4131 77.8152 81.6694 77.8152Z" fill="white"></path>
  <path d="M33.861 37.6683L34.6341 37.0101C35.2348 36.3712 35.6757 35.7897 35.944 35.2785C36.468 34.3647 36.9792 33.0229 37.4648 31.2529C37.4648 31.1123 37.5543 31.0229 37.7332 30.9845C38.4553 30.6395 39.2987 30.0899 40.2764 29.3487C40.6917 29.0356 41.2157 28.5244 41.8483 27.8407C41.7332 28.4286 41.663 28.9781 41.6438 29.5021C41.5671 31.2209 41.9377 32.6523 42.762 33.796C43.7908 35.0165 45.1646 35.6235 46.8835 35.6235C48.4106 35.6235 49.7589 35.0101 50.9282 33.7769C51.4267 33.2018 51.8867 32.6139 52.2957 32.0261H52.7941C53.9315 32.0261 55.1392 31.4701 56.4107 30.3775C56.1615 31.2465 56.0273 31.8727 56.0273 32.2369C56.0273 32.7992 56.1551 33.3488 56.4107 33.8727C57.0114 35.0037 57.9123 35.566 59.1073 35.566C60.3149 35.566 62.0466 33.9494 64.3086 30.7289C64.1169 31.4318 64.021 31.9558 64.021 32.288C64.021 32.5564 64.0658 32.9079 64.1552 33.3488C64.7048 34.8504 65.7016 35.6044 67.1393 35.6044C67.1776 35.6044 67.1968 35.5916 67.1968 35.566V34.9718C67.1968 34.5117 67.2607 34.1155 67.3885 33.796C67.3885 33.5788 67.7527 32.7673 68.4876 31.3679C69.363 29.7002 70.7559 27.5787 72.6665 25.01C74.1937 23.0867 75.1458 22.1218 75.5164 22.1218C75.6059 22.1474 75.6506 22.224 75.6506 22.3518C75.6506 22.4796 75.6314 22.6266 75.5931 22.7927C75.4908 23.1506 74.5643 25.7448 72.8199 30.5756C72.462 31.4893 72.2831 32.1283 72.2831 32.4989C72.2831 33.0868 72.4684 33.6619 72.839 34.2114C73.5355 35.1124 74.3662 35.5596 75.3439 35.5596H75.6314C77.0563 35.5596 79.2672 33.2146 82.2577 28.5308C84.7881 24.371 86.0532 21.847 86.0532 20.9588V20.8885C86.0532 20.6969 85.983 20.5818 85.8424 20.5435C85.5868 20.5435 85.2673 20.9077 84.8775 21.6426C84.1938 23.0419 82.6922 25.2336 80.3727 28.2113C78.1362 30.9462 76.7752 32.3264 76.2896 32.3519H76.2321C76.1937 32.3519 76.1554 32.288 76.117 32.1602C76.117 32.0452 76.2768 31.4765 76.5963 30.4478C77.3183 28.2752 78.4046 25.502 79.8743 22.1282C80.6602 20.3326 81.05 19.2016 81.05 18.7352V18.6585C81.05 18.339 80.8711 18.0131 80.5132 17.6745C79.5484 16.9524 78.8072 16.5946 78.2768 16.5946C76.4685 16.5946 73.97 18.9269 70.7815 23.5851C71.9636 20.863 72.5515 19.2527 72.5515 18.7479C72.5515 18.4412 72.4237 18.1473 72.1681 17.8598C71.2416 17.0738 70.5004 16.684 69.9317 16.684C69.8678 16.684 69.8102 16.6904 69.7591 16.7032C69.5419 16.7032 69.2927 16.9844 69.0051 17.553C68.2128 19.323 67.2415 21.8981 66.1041 25.2528C65.3821 26.2624 64.5322 27.387 63.5354 28.633C61.6504 30.9462 60.4108 32.1858 59.8165 32.3519C59.7015 32.3519 59.644 32.2817 59.644 32.1411C59.644 32.0516 59.7654 31.5788 60.0082 30.7161C60.6728 28.6969 61.6249 26.2496 62.8581 23.355C64.0019 20.7608 64.5706 19.208 64.5706 18.6904C64.5706 18.3709 64.4364 18.077 64.168 17.8023C63.2415 17.0291 62.5003 16.6457 61.9316 16.6457C61.7654 16.6457 61.6312 16.684 61.529 16.7607C61.4268 16.8118 61.2351 17.1058 60.9539 17.6489C60.0657 19.6936 59.0306 22.486 57.8548 26.0132C57.5417 26.3902 57.235 26.7417 56.9475 27.0292C56.3341 27.6043 55.842 27.9749 55.4842 28.1283C54.8388 28.435 54.3724 28.5883 54.0784 28.5883C55.1967 25.8279 55.8037 23.4062 55.9059 21.3231C55.9698 20.0259 55.8101 19.0866 55.4267 18.5115C54.3979 16.9332 52.9666 16.1409 51.1327 16.1409C48.3467 16.1409 45.8994 18.1729 43.7908 22.2304C43.5096 22.8311 43.2604 23.4062 43.0368 23.9685C42.8962 24.1793 42.762 24.3966 42.6151 24.6011C42.385 25.01 41.8547 25.6298 41.0368 26.4477C40.123 27.2848 39.222 27.8854 38.3211 28.256H38.2827C38.4872 27.6682 38.6661 27.1442 38.8195 26.6969C39.7077 24.3327 40.7684 21.7767 42.0144 19.0291C43.5671 15.5722 44.3467 13.5338 44.3467 12.9012V12.7479C44.3467 12.1217 43.6758 11.4699 42.3211 10.8054C42.04 10.6137 41.5416 10.5178 40.8387 10.5178H40.7045C38.9856 10.5178 37.1645 11.1312 35.2539 12.3645C34.6405 12.7351 33.8162 13.4252 32.7875 14.4284C31.8226 15.4955 31.1517 16.3709 30.7619 17.0674C29.8609 18.6968 29.4136 20.0643 29.4136 21.1697C29.4136 22.3135 29.8609 23.4317 30.7619 24.5244C31.6373 25.4765 32.3402 25.9493 32.8833 25.9493H32.9792C33.0303 25.9493 33.075 25.9365 33.1133 25.911C33.2923 25.8343 33.3817 25.6682 33.3817 25.4126V25.3934C33.2667 24.5435 33.2092 23.9109 33.2092 23.4828C33.2092 20.5691 34.4041 18.0387 36.7939 15.8917C37.6565 15.1185 38.4233 14.5498 39.107 14.1792C37.2859 18.4668 35.3817 23.6362 33.4073 29.6874C33.3434 29.7129 33.1389 29.7641 32.7938 29.8407C31.1005 30.0708 29.8098 30.3072 28.9216 30.5564C28.059 30.8248 27.3625 31.1187 26.8193 31.4446C26.4487 31.6491 26.0206 32.0069 25.5478 32.5245C24.8896 33.3743 24.5637 34.2242 24.5637 35.0868V35.3743C24.5637 36.2114 24.8704 36.991 25.4902 37.7258C26.4679 38.7546 27.7011 39.2658 29.19 39.2658C30.7683 39.2658 32.321 38.7354 33.861 37.6683ZM49.1966 20.9652C50.1103 19.4892 50.941 18.6457 51.7014 18.4412C51.8292 18.4412 51.9314 18.4604 52.0081 18.4987C52.3915 18.7543 52.5577 19.4381 52.5065 20.5435C52.4171 22.3263 51.8803 24.5691 50.9091 27.2656C50.4618 26.8056 50.1103 26.3774 49.8675 25.994C49.0688 24.5691 48.6982 23.3103 48.7493 22.2176C48.7685 21.7576 48.9154 21.3422 49.1966 20.9652ZM45.9633 30.6395C46.0145 29.8279 46.1806 28.8439 46.4617 27.6746C46.6534 26.8758 46.7685 26.4797 46.8068 26.4797C46.8068 26.518 46.8451 26.633 46.9218 26.8247C47.1646 27.5084 47.5608 28.2752 48.1167 29.1378C48.4362 29.6235 48.8388 30.1091 49.3308 30.582C48.3787 32.1858 47.5097 32.9909 46.7109 32.9909L46.5384 32.9718C46.1039 32.6075 45.9122 31.8344 45.9633 30.6395ZM28.6021 36.32C27.9695 36.1156 27.6564 35.7641 27.6564 35.2593C27.6564 34.7481 28.0334 34.2881 28.7938 33.8919C29.5414 33.5724 30.7235 33.1826 32.3593 32.7353H32.3785C32.2507 33.0676 32.0782 33.4829 31.8609 33.9686C30.9727 35.5469 30.0207 36.3392 28.9919 36.3392C28.9152 36.3392 28.781 36.3328 28.6021 36.32Z" fill="white"></path>
  <path d="M63.6826 15.0924C64.6858 15.6036 65.3184 15.8656 65.5867 15.8656C65.8551 15.8656 66.0915 15.7187 66.3024 15.4247C66.7113 14.4854 66.9158 13.8017 66.9158 13.3608V13.3225C66.9158 13.0413 66.788 12.7602 66.5324 12.4726C65.5803 11.6867 64.8391 11.2969 64.296 11.2969H64.2768C63.9701 11.2969 63.7401 11.4886 63.5803 11.872C63.018 13.0796 62.7305 13.7314 62.7305 13.8336C62.7432 14.2234 63.0564 14.6388 63.6826 15.0924Z" fill="white"></path>
  <path d="M71.9827 45.2917C72.4172 44.7933 72.7622 44.199 73.0178 43.5217C73.2734 42.8444 73.4012 42.1096 73.4012 41.3236C73.4012 40.7102 73.3118 40.1671 73.1328 39.6942C72.9539 39.2214 72.7111 38.8188 72.3916 38.4929C72.0785 38.167 71.7015 37.9178 71.2734 37.7517C70.8453 37.5856 70.3724 37.4961 69.8676 37.4961C69.2095 37.4961 68.5897 37.6367 68.0082 37.9242C67.4267 38.2118 66.9155 38.6015 66.481 39.0999C66.0465 39.5984 65.7014 40.1862 65.4458 40.8699C65.1966 41.5536 65.0688 42.2885 65.0688 43.0808C65.0688 43.6942 65.1583 44.2374 65.3372 44.7102C65.5161 45.1831 65.759 45.5856 66.0721 45.9115C66.3852 46.2374 66.7558 46.4866 67.1839 46.6528C67.612 46.8189 68.0849 46.9083 68.5897 46.9083C69.2478 46.9083 69.8676 46.7614 70.4491 46.4738C71.037 46.1927 71.5418 45.7965 71.9827 45.2917ZM69.7846 44.9019C69.4906 45.1128 69.152 45.215 68.7877 45.215C68.2766 45.215 67.8996 45.0425 67.6503 44.6911C67.4011 44.346 67.2733 43.7965 67.2733 43.0553C67.2733 42.5313 67.3309 42.0393 67.4395 41.5664C67.5545 41.1 67.7142 40.6846 67.9187 40.3268C68.1296 39.969 68.3788 39.6878 68.6727 39.4833C68.9667 39.2725 69.2989 39.1702 69.6695 39.1702C70.1807 39.1702 70.5641 39.3428 70.8133 39.6942C71.0625 40.0456 71.1903 40.5888 71.1903 41.33C71.1903 41.8476 71.1328 42.3396 71.0242 42.8061C70.9092 43.2725 70.7494 43.6879 70.5386 44.0393C70.3341 44.4099 70.0785 44.6911 69.7846 44.9019Z" fill="white"></path>
  <path d="M79.8998 46.1157C79.8998 46.2307 79.9189 46.3266 79.9637 46.4096C80.0084 46.4927 80.0659 46.563 80.1426 46.6141C80.2192 46.6652 80.3023 46.71 80.3918 46.7355C80.4812 46.7611 80.5771 46.7739 80.6793 46.7739H81.7911L82.8966 37.6364H80.6985L80.1298 42.3712C79.9956 42.7866 79.8295 43.1636 79.6314 43.5022C79.4333 43.8409 79.2224 44.1285 78.9924 44.3649C78.7624 44.6013 78.5259 44.7866 78.2831 44.9144C78.0339 45.0422 77.7975 45.1061 77.5675 45.1061C77.2735 45.1061 77.0499 45.023 76.9029 44.8505C76.7559 44.6844 76.6857 44.4032 76.6857 44.007C76.6857 43.9751 76.6857 43.9368 76.692 43.892C76.692 43.8473 76.7048 43.7515 76.7176 43.6173C76.7304 43.4831 76.7559 43.2786 76.7815 43.0102C76.8135 42.7419 76.8518 42.3776 76.9093 41.9176C76.9604 41.4575 77.0307 40.876 77.1138 40.1795C77.1968 39.483 77.2991 38.6332 77.4141 37.63H75.216L74.5323 43.4256C74.5131 43.5534 74.5003 43.6812 74.4939 43.8026C74.4876 43.924 74.4875 44.039 74.4875 44.1604C74.4875 44.6013 74.5387 44.9911 74.6473 45.3297C74.7559 45.6684 74.9029 45.9559 75.101 46.186C75.2991 46.416 75.5355 46.5949 75.8102 46.7163C76.085 46.8377 76.3917 46.9016 76.7304 46.9016C77.3183 46.9016 77.8869 46.7419 78.4365 46.4224C78.986 46.1029 79.4908 45.6173 79.9573 44.9591L79.9061 46.071V46.1157H79.8998Z" fill="white"></path>
  <path d="M89.3249 37.5791C88.8457 37.5791 88.3792 37.7772 87.9383 38.167C87.491 38.5567 87.0821 39.1127 86.7115 39.8347C86.7306 39.4449 86.7434 39.1382 86.7498 38.921C86.7562 38.7037 86.7626 38.544 86.769 38.4417C86.7754 38.3395 86.7754 38.2692 86.7754 38.2309C86.7754 38.02 86.7051 37.873 86.5709 37.7772C86.4367 37.6813 86.2578 37.6366 86.0469 37.6366H84.9351L83.8232 46.7805H85.9766L86.4559 42.7804C86.7115 41.7069 87.0373 40.9146 87.4335 40.4098C87.8297 39.905 88.2961 39.6558 88.8201 39.6558C89.0885 39.6558 89.3696 39.7197 89.6636 39.8411L90.0661 37.7388C89.8169 37.6302 89.5677 37.5791 89.3249 37.5791Z" fill="white"></path>
  <path d="M41.5543 48.6652H28.7171L28.3337 51.7578H32.7938L31.043 66.1414H34.928L36.7044 51.7578H41.1453L41.5543 48.6652Z" fill="white"></path>
  <path d="M45.6886 58.7995H50.6215L51.0049 55.8985H46.0464L46.5768 51.6748H53.0433L53.4267 48.6652H43.0176L40.8578 66.1414H51.2925L51.6759 63.1318H45.1646L45.6886 58.7995Z" fill="white"></path>
  <path d="M60.1424 48.6652L51.7909 66.1414H54.8644C55.1775 66.1414 55.4587 66.0583 55.7143 65.8858C55.9699 65.7133 56.1424 65.5152 56.2318 65.2915L57.529 62.1477H63.4651L64.0019 65.2915C64.0402 65.5471 64.1616 65.7516 64.3661 65.9114C64.5706 66.0647 64.839 66.1478 65.1776 66.1478H68.2L64.1489 48.6715H60.1424V48.6652ZM58.6216 59.4832L60.6728 54.5183C60.7111 54.4224 60.7814 54.2754 60.8709 54.0774C60.9603 53.8793 61.0562 53.662 61.1584 53.432C61.2606 53.202 61.3629 52.9591 61.4651 52.7163C61.5674 52.4735 61.6504 52.2563 61.7143 52.0646C61.7718 52.416 61.8421 52.8058 61.9252 53.2339C62.0083 53.662 62.0849 54.0838 62.1616 54.4991L63.0115 59.4896H58.6216V59.4832Z" fill="white"></path>
  <path d="M85.8361 48.7606C85.5933 48.8245 85.3952 48.9907 85.2354 49.2654L79.8871 58.4668C79.7338 58.7224 79.5868 58.978 79.4462 59.2336C79.3056 59.4892 79.1715 59.7512 79.0437 60.0132C78.9223 59.4828 78.7817 58.9716 78.6091 58.4668L75.5356 49.2591C75.4845 49.1057 75.427 48.9907 75.3567 48.914C75.2864 48.8373 75.197 48.7734 75.1011 48.7415C74.9989 48.7031 74.8903 48.6904 74.7561 48.6904C74.6283 48.6904 74.4813 48.6904 74.3152 48.6904H71.3375L69.1777 66.1538H72.6346L73.8359 55.9237C73.8615 55.7192 73.8807 55.4828 73.8871 55.2272C73.8998 54.9716 73.9126 54.7096 73.9318 54.4348L77.0053 63.4765C77.0948 63.7385 77.2481 63.9429 77.4781 64.0771C77.7082 64.2113 77.9702 64.2816 78.2769 64.2816H78.8072C79.114 64.2816 79.3887 64.2177 79.6443 64.0835C79.8999 63.9493 80.1108 63.7512 80.2705 63.4765L85.523 54.454C85.4591 54.7352 85.4016 55.0035 85.3504 55.2655C85.2993 55.5275 85.261 55.7639 85.2354 55.9812L84.015 66.1538H87.4463L89.6061 48.6776H86.5326C86.3089 48.6648 86.0789 48.6967 85.8361 48.7606Z" fill="white"></path>
  <path d="M71.9034 128.32C60.9724 124.784 38.6534 131.991 38.6534 131.991L30.2508 120.602C30.2508 120.602 47.5426 106.887 47.2115 94.8704C47.0416 88.8603 55.9473 98.1065 63.5288 108.413C71.1103 118.719 77.3676 130.085 71.9034 128.32Z" fill="url(#paint2_linear_543_16659)"></path>
  <path d="M47.2116 94.8705C47.0417 88.8603 55.9474 98.1066 63.5289 108.413C71.1103 118.719 77.3676 130.085 71.9008 128.314" fill="#0C1B46"></path>
  <path d="M48.7256 150.828L45.3795 153.296C43.9728 154.332 41.9845 154.041 40.9458 152.628L30.2721 138.175L38.657 131.982L37.1206 129.897C37.2996 130.048 37.4616 130.227 37.6075 130.421L49.3972 146.386C50.4385 147.805 50.1324 149.792 48.7256 150.828Z" fill="url(#paint3_linear_543_16659)"></path>
  <path d="M37.1172 129.906L30.251 120.603L21.749 126.881L21.7629 126.897C21.7062 126.935 21.6443 126.961 21.5875 126.999C18.4437 129.325 17.7793 133.75 20.099 136.896C22.4249 140.04 26.8498 140.704 29.9962 138.385C30.0504 138.34 30.0958 138.292 30.15 138.248L30.1639 138.264L30.2872 138.176L38.6721 131.983L37.1172 129.906Z" fill="#0C1B46"></path>
  <defs>
    <linearGradient id="paint0_linear_543_16659" x1="94.7305" y1="120.314" x2="56.6039" y2="2.34551" gradientUnits="userSpaceOnUse">
      <stop stop-color="#1A8A93"></stop>
      <stop offset="1" stop-color="#27CAD7"></stop>
    </linearGradient>
    <linearGradient id="paint1_linear_543_16659" x1="107.51" y1="150.666" x2="69.9622" y2="-2.93538" gradientUnits="userSpaceOnUse">
      <stop offset="1.3e-07" stop-color="#17757C"></stop>
      <stop offset="0.728832" stop-color="#22BECA"></stop>
    </linearGradient>
    <linearGradient id="paint2_linear_543_16659" x1="72.6862" y1="133.915" x2="40.2405" y2="96.4533" gradientUnits="userSpaceOnUse">
      <stop stop-color="#1A8A93"></stop>
      <stop offset="1" stop-color="#27CAD7"></stop>
    </linearGradient>
    <linearGradient id="paint3_linear_543_16659" x1="50.9826" y1="154.117" x2="30.2431" y2="136.416" gradientUnits="userSpaceOnUse">
      <stop stop-color="#1A8A93"></stop>
      <stop offset="1" stop-color="#27CAD7"></stop>
    </linearGradient>
  </defs>
</svg>
