<?xml version="1.0" encoding="UTF-8"?>
<svg xmlns="http://www.w3.org/2000/svg" width="272" height="354" viewBox="0 0 272 354" fill="none">
  <path d="M155 174.5C155.1 174.7 155.2 174.9 155.2 175.1C154.2 177.6 151.8 178.4 149.8 179.7C148.7 180.4 148 179.8 147.6 178.7C147.3 177.6 147.2 176.5 147.2 175.4C147.2 139.4 147.1 103.4 147.2 67.5C147.2 66.5 147.4 65.5 147.4 64.5C147.5 59.6 144.4 57.7 140.2 60.1C132 64.8 123.8 69.5 115.6 74.3C89 89.5 62.4 104.8 36 120.2C33.9 121.4 30.8 121.9 30.6 125.2C30.6 165.8 30.6 206.3 30.6 246.9C30.6 249.9 30.4 253 33.6 254.7C35.1 255.8 36.4 255 37.7 254.2C69.9 235.4 102.3 216.9 134.5 198.2C136.5 197 138.3 194.4 141.3 195.9C141.6 199.2 140.8 202.5 141.8 205.7C141.8 214 142.7 222.4 141.3 230.7C140.4 232.4 138.8 233.4 137.1 234.3C130.1 238.2 123.1 242.4 116.1 246.4C114.9 247.1 113.7 247.7 113.1 248.5C121.3 243.9 129.5 238.9 138 234.2C138.8 233.8 139.6 233.7 140.5 234.1C141.6 235 141.8 236.2 141.8 237.5C141.8 245.6 142.2 253.6 141.6 261.7C141.3 263.3 140 264.1 138.7 264.9C100.7 286.8 62.8 308.9 24.7 330.7C23.3 331.5 21.6 333.6 20.1 330.7C19.6 322.1 20 313.4 19.9 304.8C19.9 287.3 19.9 269.8 19.9 252.3C19.9 250.6 19.9 248.8 19.3 247.1C19 245.9 19 244.6 19 243.4C19 219.7 18.9 196 19 172.4C19.3 163.2 19 153.9 19.1 144.7C19.2 133.8 19 122.9 19.2 112C19.2 111.6 19.3 111.2 19.5 110.8C23 107.3 27.5 105.5 31.7 103.1C64.6 83.9 97.7 65 130.6 45.8C137.2 42 143.8 38.2 150.4 34.4C151.6 33.7 153.7 31.3 154.5 35C154.5 54.5 154.5 74.1 154.5 93.6C154.5 105.3 154.5 117.1 154.5 128.8C154.5 142.7 154.5 156.6 154.5 170.5C154.7 171.8 154.4 173.2 155 174.5Z" fill="#57B2FD"></path>
  <path d="M20.5 110.2C20.5 110.4 20.4 110.5 20.3 110.7C19.9 111 19.4 111.1 19 111C17.4 110.5 16.3 110.8 16.4 112.8C16.4 113.5 16.4 114.3 16.4 115C16.4 183.9 16.4 252.8 16.4 321.7C16.4 325 16.2 328.3 19.7 330.2C20.2 330.7 20.5 331.3 20.9 332C21.6 332.6 22.1 333.4 22.1 334.3C22.3 340.4 22.9 346.4 21.9 352.5C15.8 349.1 9.8 345.7 3.7 342.3C1.1 340.9 0.7 338.5 0.7 335.9C0.6 329.7 0.5 323.4 0.5 317.2C0.3 239.9 0.2 162.7 0 85.5C0 77.3 3.4 71.6 10.4 67.6C48.3 45.7 86.2 23.9 124 1.9C128.1 -0.5 131.4 -0.7 135.3 2C139.9 5.1 144.9 7.7 149.8 10.4C149.9 12.1 148.5 12.4 147.5 12.9C121.8 27.4 96.4 42.4 70.8 57.1C57.3 64.9 43.8 72.7 30.4 80.5C24.2 84.1 21.3 89.3 21.3 96.5C21.3 101 22.3 105.7 20.5 110.2Z" fill="#1D2943"></path>
  <path d="M239.8 29.8C242.6 30.5 243.3 32.8 243.3 35.2C243.4 47.2 243.5 59.1 243.3 71.1C243.2 76.5 240.4 80.8 235.6 83.6C218.5 93.5 201.4 103.4 184.3 113.3C182 114.7 179.7 115.2 177.6 113C176.2 111.6 175.8 109.8 175.8 107.9C175.8 96.6 175.8 85.2 175.8 73.9C175.8 67.3 179.2 62.6 184.8 59.4C196.6 52.5 208.5 45.7 220.3 38.8C224.7 36.2 229.1 33.7 233.5 31.1C235.4 29.9 237.4 28.7 239.8 29.8Z" fill="#FECF6C"></path>
  <path d="M20.5 110.2C20.5 104.6 20.1 98.9 20.5 93.4C20.9 87.9 23.7 83.4 28.5 80.6C44.4 71.3 60.3 62.1 76.3 52.9C98.5 39.9 120.7 27 143 14.1C145.2 12.8 147.5 11.6 149.8 10.3C152.7 11.3 154.5 13.2 154.6 16.4C154.4 22 155.2 27.7 154.2 33.3C143.7 39.3 133.2 45.2 122.8 51.2C89.7 70.3 56.6 89.5 23.4 108.7C22.6 109.3 21.5 109.7 20.5 110.2Z" fill="#4C5C75"></path>
  <path d="M21.9 352.5C20.5 348.8 21.4 344.9 21.1 341.2C20.9 338.2 21.7 335 20.4 332.1C20.6 331.8 20.9 331.7 21.2 331.9C36.7 323 52.3 314 67.8 305.1C92.1 291.1 116.4 277.1 140.6 263.1C141.7 263.9 141.9 265.2 141.9 266.4C142 272.6 142 278.8 141.9 285C141.9 286.2 141.8 287.5 140.7 288.4C106.4 308.3 72 328.2 37.5 348C34.7 349.6 31.9 351.3 29.1 352.8C26.7 354.1 24.2 354.5 21.9 352.5Z" fill="#4C5C75"></path>
  <path d="M271 141.4C271 177.6 271.1 213.8 271 250C271 258.3 266.3 264.8 259.5 269C249.1 275.6 238.3 281.5 227.7 287.7C213.8 295.7 200 303.7 186.1 311.7C178.6 316 171 320.4 163.5 324.7C159.9 326.8 156.3 327.1 152.9 324.4C150.7 322.2 150.2 319.5 150.2 316.5C150.3 311.9 150.1 307.3 150.2 302.7C150.7 274.5 149.3 246.4 149.4 218.2C149.4 216 149.2 213.7 149.9 211.5C150 211.1 150.2 210.7 150.5 210.4C155.6 206.4 161.5 203.6 167.1 200.4C200.3 181.2 233.4 162 266.6 142.8C267.9 142.1 269.2 140.9 271 141.4Z" fill="#F2F0FB"></path>
  <path d="M271 141.4C232 164 193 186.5 153.9 209.1C153.1 209.6 152.1 210 151.2 210.4C149.5 206.4 149.8 202.2 150.8 198.4C152.7 191.4 156.4 185.5 163 181.6C194.4 163.5 225.7 145.3 257 127.2C259.4 125.8 261.9 124.6 264.8 125.2C269.3 127 270.9 130.6 270.8 135.1C271 137.2 271 139.3 271 141.4Z" fill="#F35170"></path>
  <path d="M265 125.2C256.6 127.5 249.7 132.8 242.3 137C226.8 145.8 211.3 154.9 195.9 163.8C184.5 170.4 172.9 176.6 161.8 183.7C155.4 187.8 151.9 194.4 151.3 202.2C151.1 204.9 151.3 207.7 151.2 210.4L151.3 210.7C146.8 210.7 143.7 208.2 140.7 205.2C139.9 202.1 140.5 198.9 140.5 195.8C139.8 194.9 139.8 193.9 140.1 193C141.4 188.6 143.4 184.5 146.3 180.9C146.9 180.2 147.6 179.8 148.5 179.7C150.7 178.2 152.8 176.6 155 175.1C180.6 160.3 206.2 145.6 231.9 130.8C236.7 128 241.7 125.4 246.4 122.3C251.1 119.3 255.5 118.8 260.2 122.3C261.7 123.4 263.4 124.3 265 125.2Z" fill="#DE3260"></path>
  <path d="M140.8 205.2C144.5 206.7 147.5 209.6 151.4 210.7C150.5 211.9 150.6 213.3 150.6 214.7C150.6 225.6 150.1 236.4 150.7 247.3C152 271 151 294.7 151.2 318.4C151.2 320.7 152.8 322.4 152.8 324.6C143.9 321 139.2 315.2 140.7 304.9C141.5 299.6 140.8 294 140.8 288.6C140.8 280.1 140.7 271.7 140.7 263.2C140.7 254.5 140.8 245.8 140.8 237.2C140.8 236.1 141.1 234.8 139.4 234.7C138.9 233.5 140.3 232.8 140.2 231.8C141.4 226.9 140.5 221.9 140.7 217C140.8 212.9 140.8 209 140.8 205.2Z" fill="#DDDEFA"></path>
  <path d="M239.8 29.8C235.8 30 233 32.6 229.8 34.5C215.2 42.8 200.8 51.3 186.2 59.6C179.9 63.2 176.6 68.2 176.8 75.7C177.1 86.2 176.9 96.7 176.8 107.2C176.8 109.2 177 111.2 177.6 113.1C172.5 111.3 170.5 108 170.7 102.3C171.2 91.7 170.9 81.1 170.8 70.5C170.8 64.6 173.3 60.1 178.3 57.2C195.3 47.3 212.3 37.6 229.2 27.6C233.7 24.9 236.6 27.5 239.8 29.8Z" fill="#F8A73D"></path>
  <path d="M154.1 33.5C154.2 34 154.6 34.4 154.6 34.9C154.6 60.1 154.9 68.3 154.9 93.5C154.7 93.8 154.5 93.8 154.3 93.5C154.3 73.5 154 39.1 154.1 33.5Z" fill="#64A2E9"></path>
  <path d="M155 174.5C153.9 173.3 154.4 171.9 154.4 170.6C154.4 156.7 154.4 142.7 154.4 128.8C154.6 128.5 154.8 128.5 155 128.8C154.9 144 155 159.2 155 174.5Z" fill="#58A9F7"></path>
  <path d="M154.9 128.8C154.7 128.8 154.5 128.8 154.3 128.8C154.3 117.1 154.3 105.3 154.3 93.6C154.5 93.6 154.7 93.6 154.9 93.6C154.9 105.3 154.9 117 154.9 128.8Z" fill="#5DA3EF"></path>
  <path d="M148.6 179.7C144.5 184.3 141.5 189.5 140.6 195.8C106.4 215.6 72.1 235.5 37.8 255.2C36.8 255.8 35.9 256.9 34.5 256.3C33.5 255 33.4 253.6 33.4 252C33.4 211 33.3 170 33.4 129.1C33.4 128.5 33.5 127.9 33.6 127.2C34 124.9 35.8 124 37.6 123.1C56.2 112.3 74.9 101.5 93.5 90.7C110.2 81 126.9 71.4 143.6 61.7C144.1 61.4 144.7 61 145.2 60.8C146.9 60 148.1 59.9 148 62.4C147.9 63.5 147.7 64.6 148.2 65.7C148.3 94.6 148.3 123.4 148.4 152.3C148.4 161.5 148.5 170.6 148.6 179.7Z" fill="#FEFEFE"></path>
  <path d="M19.6 331.2C15.9 330.2 14.9 327.8 15 324C15.1 253.5 15.1 183.1 15.1 112.6C15.1 111.2 15.1 109.9 15.1 108.3C17.1 108.4 18.3 109.7 19.7 110.6C20.4 118.7 19.8 126.9 20 135C20.1 138.1 20 141.2 20 144.3C20 152.4 20 160.5 20 168.5C20 169.7 19.7 171 20.3 172.2C20.3 197.2 20.3 222.2 20.4 247.2C21 248.5 20.7 249.9 20.7 251.3C20.7 269.2 20.7 287 20.7 304.9C20.7 312.7 20.7 320.5 20.7 328.3C20.7 329.3 21.6 330.9 19.6 331.2Z" fill="#497BFD"></path>
  <path d="M148.2 65.8C146.9 64.5 148.1 62.6 147.1 60.9C141.7 64 136.4 67 131 70.1C115.2 79.2 99.4 88.3 83.6 97.5C68.7 106.1 53.7 114.8 38.8 123.5C37.4 124.3 36 125.1 34.6 125.8C32.1 126.8 31 124.8 29.5 123.5C32.4 120.3 36.5 118.9 40.1 116.8C73.4 97.4 106.8 78.1 140.2 58.8C142.3 57.6 143.9 57.5 146 58.7C149.3 60.4 148.2 63.2 148.2 65.8Z" fill="#F2F0FB"></path>
  <path d="M29.5 123.5C31.5 123.6 32.6 125.6 34.6 125.8C34.6 169.3 34.6 212.8 34.5 256.4C30.8 255.4 29.3 253.4 29.3 249.2C29.4 208.8 29.4 168.4 29.3 128C29.4 126.5 29.5 125 29.5 123.5Z" fill="#DDDEFA"></path>
  <path d="M107.3 253.1C106.8 258 104.2 263.1 98.8 266.2C94.6 268.6 91.1 266.6 90.7 261.8C90.3 256.1 94.8 248.7 100 246.3C104.3 244.5 107.3 246.7 107.3 253.1Z" fill="#FEFEFE"></path>
  <path d="M46.2 287.4C45.6 293.5 43 298.4 37.8 301.5C33.2 304.3 29.1 301.8 29.5 296.4C29.9 290.5 32.7 285.7 37.6 282.4C39.5 281.1 41.6 280.3 43.9 281.7C46 283.1 45.9 285.3 46.2 287.4Z" fill="#FEFEFE"></path>
  <path d="M51.1 285.2C50.8 282.7 52.4 282.3 53.7 281.5C63.9 275.6 74.1 269.6 84.3 263.8C85.2 263.3 86.3 261.8 87.1 263.1C87.9 264.4 86.3 265.2 85.2 265.8C76.4 270.9 67.6 276 58.8 281.1C56.4 282.5 54.1 284.3 51.1 285.2Z" fill="#FAFCFE"></path>
  <path d="M140.2 231.6C141.8 233.1 139.9 233.6 139.4 234.5C131.6 239.1 123.7 243.6 115.9 248.1C114.8 248.7 113.2 250.5 112.5 249C111.7 247.4 113.9 246.7 115.1 246C123.4 241.2 131.8 236.4 140.2 231.6Z" fill="#F9FCFE"></path>
  <path d="M136.8 242.6C137.4 245.1 136 245.7 134.9 246.3C128.3 250.2 121.6 254 114.9 257.8C114.2 258.2 113.2 259.4 112.4 258.2C111.8 257.2 112.8 256.4 113.7 255.9C121.4 251.6 129 247.2 136.8 242.6Z" fill="#F8FBFE"></path>
  <path d="M137.1 225.8C136.9 226.8 136.2 227.3 135.4 227.7C128.5 231.7 121.7 235.7 114.8 239.6C114.1 240 113 241.2 112.3 239.9C111.8 239 112.8 238.1 113.7 237.6C120.8 233.5 127.9 229.4 135 225.4C135.7 224.9 136.8 224 137.1 225.8Z" fill="#F8FBFE"></path>
  <path d="M75.5 259.8C76.1 262.2 74.9 262.7 73.9 263.3C67 267.3 60.2 271.3 53.3 275.2C52.7 275.6 51.8 276.6 51.2 275.4C50.7 274.5 51.5 273.8 52.3 273.3C59.9 268.8 67.5 264.4 75.5 259.8Z" fill="#F9FCFE"></path>
  <path d="M52 294.2C50.8 294.2 50.9 293.4 51.2 292.7C51.5 292.1 52.2 291.6 52.8 291.2C59.7 287.1 66.7 283.1 73.7 279C74.3 278.7 75 277.9 75.6 278.7C76.2 279.5 75.7 280.4 74.9 280.9C67.4 285.3 59.9 289.6 52.4 294C52.2 294.1 52.1 294.2 52 294.2Z" fill="#F9FCFE"></path>
  <path d="M20.4 305C20.4 285.8 20.4 266.5 20.4 247.3C21.4 248.2 21.1 249.4 21.1 250.5C21.1 268.7 21.1 286.9 21.1 305.1C20.9 305.3 20.6 305.3 20.4 305Z" fill="#4D92E1"></path>
  <path d="M19.6 144.5C19.6 133.2 19.6 121.9 19.7 110.6C19.9 110.6 20.1 110.6 20.3 110.6C20.3 121.9 20.3 133.2 20.3 144.4C20.1 144.9 19.9 144.9 19.6 144.5Z" fill="#4579E0"></path>
  <path d="M19.6 144.5C19.8 144.5 20.1 144.5 20.3 144.5C20.3 153.7 20.3 163 20.3 172.2C19.2 171.2 19.6 169.9 19.6 168.7C19.6 160.7 19.6 152.6 19.6 144.5Z" fill="#4678EC"></path>
  <path d="M20.4 305C20.6 305 20.9 305 21.1 305C21.1 313.9 21.2 322.9 21.2 331.8C20.9 331.9 20.7 331.9 20.4 332C20.1 331.8 19.9 331.5 19.6 331.3C20.8 330.2 20.3 328.7 20.3 327.4C20.4 319.9 20.4 312.4 20.4 305Z" fill="#4988DA"></path>
  <path d="M24.8 70.1C21.9 68.3 22.6 66.3 24.7 64.5C27.9 61.8 35.5 61.7 38.8 64.4C40.9 66.1 41.8 68.1 39.1 70.2C34.4 68.7 29.6 68.7 24.8 70.1Z" fill="#FCFCFD"></path>
  <path d="M24.8 70.1C29 67.1 34.5 67.1 39.1 70.1C34.7 73.6 29 73.6 24.8 70.1Z" fill="#4C5C75"></path>
  <path d="M204.1 90.3C202.5 89.7 203.2 88.6 203.5 87.6C206 79.8 208.5 72 211.1 64.1C212 61.3 212.9 58.4 213.9 55.6C214.2 54.7 214.8 53.5 216 53.9C217.3 54.4 216.7 55.6 216.4 56.5C213.1 66.9 209.7 77.3 206.3 87.8C205.9 89 205.3 89.9 204.1 90.3Z" fill="#222D44"></path>
  <path d="M218.7 58.4C221 59.4 223.4 60.3 225.7 61.4C226.9 62 226.6 63.2 226.1 64C223.6 68 221.1 72 218.5 76C218.1 76.6 217.5 77.3 216.7 76.9C215.7 76.3 216.1 75.3 216.5 74.6C217.9 72.2 219.2 69.9 220.9 67.7C222.6 65.5 222.1 64.3 219.6 63.7C218.9 63.5 218.2 63.2 217.5 62.9C216.5 62.5 215.8 61.9 216.2 60.6C216.6 59.3 217.2 58.4 218.7 58.4Z" fill="#222C44"></path>
  <path d="M203.8 83C203.7 83.3 203.6 83.5 203.6 83.7C202.9 85.9 201.2 86.5 199.7 85.1C197.8 83.4 192.3 85 194.1 80.2C195.7 76 198.8 72.3 201.3 68.5C201.8 67.8 202.5 66.9 203.4 67.5C204.2 68.1 203.9 69.1 203.4 69.9C202.2 71.9 201 74 199.6 75.9C197.7 78.4 197.4 80.1 201.1 80.9C202.1 81.2 203.6 81.3 203.8 83Z" fill="#212C43"></path>
  <path d="M103.5 50.7C103.4 53.1 102.3 54.2 100.8 55.1C88.1 62.5 75.5 69.8 62.8 77.1C62.1 77.5 61.2 78.2 60.4 77.3C59.6 76.5 59.8 75.4 60.2 74.5C60.7 73.3 61.6 72.5 62.7 71.8C75.2 64.6 87.6 57.3 100.1 50.1C101.6 49.4 103.3 48.3 103.5 50.7Z" fill="#9DA8C8"></path>
  <path d="M114.7 44.4C114.6 47.7 112.2 50.8 110 50.9C108 51 107.8 49.7 107.8 48.2C107.8 45.4 110.5 41.8 112.7 42C114.6 42 114.7 43.4 114.7 44.4Z" fill="#9CA7C7"></path>
  <path d="M73.5 314.1C73.8 310.9 76 307.9 79.3 305.9C85 302.4 90.9 299.1 96.7 295.8C98.1 295 99.6 294.1 101.2 295.3C102.9 296.5 102.9 298.3 102.6 300C102 303.2 100.6 306 97.8 307.7C91.7 311.5 85.5 315.1 79.1 318.5C75.5 320.5 73.3 319 73.5 314.1Z" fill="#9DA8C8"></path>
  <path d="M265.8 201.5C265.8 216.5 265.7 231.5 265.8 246.5C265.9 255.3 261.8 261.7 254.4 266.1C229.1 280.9 203.7 295.6 178.3 310.2C172.8 313.4 167.3 316.6 161.8 319.6C157.4 321.9 156.5 321.3 156.6 316.6C157.1 283.7 155.4 250.7 155.7 217.8C155.7 214.6 157 213.1 159.4 211.7C176.7 201.7 194 191.6 211.3 181.6C228.5 171.7 245.8 161.8 263 151.8C265.8 150.1 265.7 151.4 265.7 153.5C265.8 169.5 265.8 185.5 265.8 201.5Z" fill="#FEFEFE"></path>
  <path d="M262.6 136.8C262.1 140.2 260.8 143.2 257.6 145.1C245.4 152.2 233.1 159.3 220.8 166.4C219.4 167.2 218 167.7 216.6 166.6C215.3 165.7 215.5 164.2 215.6 162.8C216.1 159.4 217.9 156.8 220.9 155.1C232.8 148.2 244.8 141.3 256.7 134.4C260.2 132.4 262.5 133.4 262.6 136.8Z" fill="#FEFEFE"></path>
  <path d="M159.1 196.1C159.6 192.8 160.9 189.8 164.1 188C166.8 186.5 168.7 187.6 168.7 190.8C168.7 194.4 167 197.2 164 199.1C161.3 200.8 159.1 199.5 159.1 196.1Z" fill="#FEFCFC"></path>
  <path d="M197.2 175C196.8 178.3 195.3 181.2 192.1 182.9C189.6 184.2 187.9 183.2 187.8 180.4C187.6 176.7 189.2 173.9 192.1 171.8C193.1 171.1 194.2 170.5 195.6 171.2C197.1 172 197.2 173.3 197.2 175Z" fill="#FEFCFC"></path>
  <path d="M182.9 183.5C182.7 186.4 181.2 189.1 178.3 191C175.6 192.7 173.3 191.3 173.5 188.1C173.7 184.8 175.2 182.1 177.9 180.2C178.9 179.5 180 178.8 181.4 179.5C182.7 180.1 183 181.4 182.9 183.5Z" fill="#FEFCFC"></path>
  <path d="M43.1 165C42.4 161.1 42.3 157.6 46.6 155.6C48.2 154.8 48.8 153.5 49.1 151.8C49.7 148.9 50.4 145.9 51.5 143.2C52.5 140.7 53 138.8 50.5 137C49.5 136.3 49.6 135.4 50.3 134.4C52.2 131.9 52.5 127.2 57.6 129.5C58.5 129.9 59.1 128.9 59.6 128.2C62 125.3 64.3 122.4 67.4 120.2C69.7 118.5 69.2 115.9 69.5 113.7C69.9 110.3 72.7 109.7 74.9 108.8C76.5 108.2 76.3 110.1 76.3 111.1C76.3 113.4 77.1 114.4 79.5 113.4C80.2 113.1 81 113 81.7 113.1C85.9 113.7 88.9 112.3 90.6 108.3C91.3 106.7 92.5 106.3 94.2 107.4C95.9 108.5 96.3 109.4 95.2 111.3C94.3 112.9 92.7 115.2 93.2 116.3C94.6 119.2 96 122.1 97.3 125C97.9 126.4 99.3 125.1 100.2 124.6C102.8 123.2 103.2 124.2 103.3 126.7C103.4 129.3 102.8 131.4 100.4 132.6C98 133.9 96.9 135.9 96.5 138.5C96.1 140.8 95.4 143.1 94.6 145.3C93.6 147.8 92.3 150.1 95.5 152C96.2 152.4 96.4 153.1 95.9 153.9C95 155.5 94 157.1 93.1 158.8C91.9 161.3 90.1 159.7 88.6 159.4C87.2 159.2 86.6 160.1 85.8 160.9C84 163 82.3 165.2 80.3 167C77.7 169.3 76.1 171.7 76.2 175.3C76.3 178.7 73 179 70.8 180.2C69.9 180.6 69.5 179.6 69.6 178.9C69.8 175.2 68 174.7 65 175.9C64.9 175.9 64.7 175.9 64.6 175.9C60.1 175.3 56.7 176.7 54.8 181.1C54 183 52.7 182 51.4 181.4C50 180.7 48.8 179.8 50.1 178.3C54.9 172.9 49.5 168.8 48.5 164.1C48.3 163 47.4 163.4 46.7 163.7C45.8 164.3 44.6 165.1 43.1 165Z" fill="#B18AFC"></path>
  <path d="M105.3 180.3C106 182.9 105.6 185.2 102.8 186.7C100 188.3 100.7 191.6 99.8 194.1C99 196.2 97.1 198.4 100 200.8C101.2 201.8 97.8 206.4 96 206C94.2 205.7 93.3 206.4 92.3 207.7C91.2 209.1 90 210.4 88.7 211.5C87.1 212.9 86 214.3 86.1 216.6C86.2 218.7 84.8 219.6 83.1 220.4C82 220.9 81.1 221.1 81.1 219.6C81.1 217.1 79.9 217.4 77.9 217.6C74.8 218 71.8 218.1 70.3 221.6C69.8 222.7 68.9 222.2 68.1 221.8C67.3 221.4 66.3 220.7 67.1 219.8C70.1 216.3 67.3 213.4 66.3 210.3C65.9 209.2 65.6 208.6 64.3 209.1C63.5 209.4 62.3 210.6 61.8 209.2C61.3 207.8 60.8 205.6 62.3 204.7C67.3 202 66.3 196.5 68.4 192.5C68.7 191.9 68.6 191.4 68.3 190.8C66.2 186.8 67.7 184.2 71.9 184.2C72.1 184.2 72.4 184.3 72.6 184.2C73.9 183.9 80.8 175.2 80.8 173.6C80.8 171.9 81.4 170.9 82.9 170C84.7 168.9 85.9 168.7 86 171.2C86.1 172.9 86.9 172.7 88.2 172.5C91.3 172.1 94.7 172.6 96.3 168.7C96.9 167.3 98 167.8 99.2 168.4C100.6 169.1 100.2 170.1 99.6 170.9C96.5 174.6 100 177.4 101 180.4C101.8 182.5 103.7 179.3 105.3 180.3Z" fill="#DAA560"></path>
  <path d="M116.6 174.4C115.5 173.3 116.3 170.4 114.6 171C112 171.8 108.7 169.7 106.8 172.9C106.5 173.4 106.1 173.9 105.7 174.4C105.1 175.5 104.4 176 103.1 175.3C101.6 174.5 101.4 173.5 102.4 172.3C105.4 168.5 101.3 165.9 100.9 162.7C100.8 162.2 100.1 162.4 99.6 162.3C98.6 162.3 97.4 164.1 96.8 162.4C96.3 160.9 95.8 158.6 97.6 157.6C102.5 154.9 101.1 149.4 103.4 145.6C103.7 145.1 103.6 144.3 103.1 143.9C100.9 142.3 102 140.9 103 139.2C104 137.4 105 136.4 107.1 137.4C107.4 137.5 108 137.4 108.1 137.2C110.2 133.4 115.6 131.9 115.8 126.7C115.9 123.8 118.1 123.2 120.1 122.1C121.5 123 120.3 126.2 122.2 125.8C125 125.1 128.6 127 130.5 123.3C131.1 122.2 131.5 120.2 133.7 121.4C136.1 122.7 134.5 124.1 134 125.5C133.6 126.6 135.2 133.8 136.1 134.3C137.5 135 138.5 133.3 140 133.6C140.9 136.5 140.4 138.9 137.4 140.5C134.9 141.9 135.7 144.7 135 146.9C134.1 149.3 132.1 151.6 135 154.3C136.1 155.3 132.6 159.8 130.8 159.4C129.1 159.1 128.2 159.6 127.4 160.9C125 164.5 120.5 166.6 120.5 171.9C120.4 173.2 118 173.8 116.6 174.4Z" fill="#F35170"></path>
  <path d="M247 207.6C246.8 209.4 245.4 210.1 244.1 210.8C231 217.7 218 224.6 204.9 231.6C204 232.1 203.2 232.7 202.3 233.1C201.4 233.5 200.3 235 199.5 233.7C198.6 232.4 199 230.8 200.7 229.9C203.4 228.4 206.1 226.9 208.9 225.4C220.6 219.1 232.4 212.9 244.1 206.6C245.3 206.1 246.8 205.2 247 207.6Z" fill="#DDDEFA"></path>
  <path d="M174.5 292.9C176.3 297.7 172.7 299.7 168.5 301.7C161.1 305.3 161.4 305.4 161 297.2C160.8 292.9 162 290.2 166.1 288.8C168.2 288.1 170.1 286.8 172 285.6C173.9 284.5 174.6 285 174.5 287.2C174.4 288.8 174.5 290.5 174.5 292.9Z" fill="#B28AFC"></path>
  <path d="M199.6 208.1C198.8 205.4 199.7 204.2 201.5 203.3C211.6 197.9 221.7 192.5 231.7 187.1C235.8 184.9 239.8 182.7 243.9 180.6C244.8 180.1 246 179 246.8 180.5C247.5 181.8 246.7 182.9 245.5 183.5C241.3 185.8 237.2 188.1 233.1 190.3C222 196.3 210.9 202.1 199.6 208.1Z" fill="#DDDEFA"></path>
  <path d="M247 231.8C246.8 233.3 245.6 234 244.4 234.7C236.7 238.8 229 242.9 221.4 247C215 250.4 208.7 253.8 202.3 257.2C201.4 257.7 200.3 259.1 199.5 257.7C198.8 256.5 199 255 200.5 254.2C203.5 252.5 206.6 250.9 209.7 249.2C220.9 243.2 232.1 237.2 243.3 231.3C244.3 230.8 245.2 229.9 246.4 230.3C247 230.4 247 231.2 247 231.8Z" fill="#DDDEFA"></path>
  <path d="M174.3 258.6C174.4 259.5 174.4 260.1 174.4 260.7C174.6 272.9 174.6 272.8 163.5 277.9C161.3 278.9 160.9 278.3 161.1 276.2C161.1 276.1 161.1 276 161.1 275.8C160.8 264.3 161.7 263.1 174.3 258.6Z" fill="#F35270"></path>
  <path d="M247.1 257.6C246.9 259.6 245.6 260.3 244.3 261C233.3 266.9 222.4 272.7 211.4 278.6C208.2 280.3 205.1 282.1 201.9 283.7C201.2 284 200.3 285 199.6 283.9C199 282.9 199 281.7 200.1 280.9C200.8 280.4 201.5 279.8 202.2 279.4C216.2 272 230.1 264.6 244.1 257.3C245 256.9 246.5 255.3 247.1 257.6Z" fill="#DDDEFA"></path>
  <path d="M221.4 186.3C220.9 184.5 220.6 183 222.5 182C234.5 175.6 246.4 169.3 258.6 162.8C259.3 165 259.3 166.5 257.2 167.6C245.7 173.6 234.3 179.7 222.9 185.8C222.4 186 222 186.1 221.4 186.3Z" fill="#79E65C"></path>
  <path d="M258.7 189.2C259.5 191.7 258.9 193 256.7 194.2C245.9 199.8 235.2 205.7 224.4 211.3C223.5 211.8 222.2 213.5 221.3 211.9C220.4 210.3 221.4 209 223.1 208.1C233.3 202.7 243.5 197.2 253.7 191.8C255.4 190.9 257 190.1 258.7 189.2Z" fill="#DBA661"></path>
  <path d="M258.7 213.1C259.3 215.4 259.2 216.9 257 218C246 223.8 235 229.7 224 235.5C223.2 235.9 222.1 237.4 221.2 235.9C220.5 234.7 220.9 233.3 222.4 232.5C234.5 226 246.6 219.6 258.7 213.1Z" fill="#FED06D"></path>
  <path d="M259 241.8C259.1 243.2 258.1 243.9 256.9 244.5C245.7 250.4 234.5 256.4 223.3 262.3C222.5 262.7 221.6 263.3 221.1 262.3C220.5 261.2 220.9 260 221.9 259.3C224.1 257.9 226.4 256.7 228.7 255.5C237.9 250.6 247.1 245.6 256.3 240.7C257.6 240.1 259.1 239.1 259 241.8Z" fill="#C9CEE1"></path>
  <path d="M169 240.1C167.3 239.5 167 238.5 168 237C170.3 233.6 172.3 230 174.7 226.7C176.5 224.3 175.6 223.4 173.3 222.6C172.1 222.2 170.9 221.9 169.9 221.2C169 220.6 166.4 221.2 167.7 218.6C168.6 216.6 169.5 215.2 172.1 216.6C175.2 218.2 180.2 218.6 181.2 220.9C182.2 223.4 178.2 226.7 176.4 229.6C174.6 232.6 172.7 235.5 170.8 238.4C170.3 239.1 170.1 240 169 240.1Z" fill="#4E5E76"></path>
  <path d="M194.6 226.5C195.1 228.7 195.3 230.3 193.3 231.4C187.7 234.5 182.1 237.8 176.4 241.1C175.3 238.7 175.8 237.2 178.1 235.9C183.5 233 188.8 229.8 194.6 226.5Z" fill="#4F5E77"></path>
  <path d="M216.7 185.2C217.5 187.3 217.3 188.6 215.5 189.6C210.8 192.1 206.2 194.7 201.5 197.3C200.7 197.7 199.7 198 199.4 196.9C199.1 195.8 199 194.6 200.3 194C205.7 191 211.1 188.1 216.7 185.2Z" fill="#DEDFFA"></path>
  <path d="M199.6 224.6C198.9 222.1 199.4 220.9 201.2 219.9C205.7 217.5 210.1 215 214.6 212.6C215.4 212.2 216.3 211.6 216.9 212.6C217.4 213.4 217.2 214.3 216.7 215C216.4 215.4 216.1 215.8 215.6 216C210.3 218.9 205.1 221.7 199.6 224.6Z" fill="#DEDFFA"></path>
  <path d="M199.6 274.9C198.8 272.3 199.4 271.1 201.3 270.1C205.6 267.9 209.9 265.5 214.2 263.3C215 262.9 216.2 261.4 217 263.1C217.5 264.3 217.2 265.5 215.8 266.2C210.5 269.1 205.2 271.9 199.6 274.9Z" fill="#DEDFFA"></path>
  <path d="M199.6 248.5C198.9 245.9 199.6 244.5 201.3 243.6C205.7 241.3 210.1 238.9 214.5 236.6C215.3 236.2 216.1 235.6 216.8 236.6C217.3 237.4 217.2 238.3 216.6 239C216.2 239.5 215.8 240 215.2 240.2C210.1 243 205 245.7 199.6 248.5Z" fill="#DEDFFA"></path>
  <path d="M193.7 284.2C193.8 287.5 188.6 292.3 185.9 292C185.3 291.9 185 291.6 185 291.1C184.9 290.1 184.8 289.1 185.9 288.5C187.1 287.8 188.2 287 189.4 286.4C190.8 285.6 192.1 285 193.7 284.2Z" fill="#DFDFFA"></path>
  <path d="M193.7 257.9C193.8 261.2 188.4 266.2 185.9 265.7C185.3 265.6 185.1 265.2 185 264.7C184.9 263.4 185 262.2 186.4 261.6C188.7 260.4 191.1 259.2 193.7 257.9Z" fill="#DEDFFA"></path>
  <path d="M185.4 256C183.8 251.6 187.7 251.4 189.6 250C190.7 249.2 192.5 247.2 193.6 248.9C195 251 193 252.4 191 253.3C189.2 254 187.3 255 185.4 256Z" fill="#DFE0FA"></path>
  <path d="M193.6 274.4C194.4 276.8 193.8 278.2 191.8 279C190.5 279.6 189.3 280.5 187.9 281.2C187 281.6 185.9 283.1 185.1 281.5C184.5 280.3 184.7 278.8 186.3 278C188.7 276.9 191 275.7 193.6 274.4Z" fill="#DEDFFA"></path>
  <path d="M89.3 137.6C88.3 147.6 83 157.6 72.2 163.9C63.9 168.7 56 163.7 56.7 153.8C57.4 142.4 62.6 133.1 72 126.4C72.3 126.2 72.6 126 73 125.8C82.2 120.4 89.3 124.6 89.3 137.6Z" fill="#FEFEFE"></path>
  <path d="M95.3 188.3C94.5 196.9 90.8 203.7 83.6 208.5C81 210.2 78.1 211.1 75.2 209.4C72.1 207.6 71.5 204.4 71.7 201.2C72.3 192.9 76.3 186.3 83.1 181.5C85.7 179.7 88.8 178.6 91.9 180.5C94.7 182.2 95.4 185.1 95.3 188.3Z" fill="#FEFEFD"></path>
  <path d="M106.5 154C107.4 146.4 110.9 139.2 118.5 134.7C124.8 130.9 130.6 134.2 130.2 141.6C129.7 150.3 125.7 157.4 118.2 162C111.9 165.9 106.5 162.5 106.5 154Z" fill="#FEFDFD"></path>
  <path d="M83.4 138.8C82.8 146.4 79.4 152.5 72.9 156.7C70.6 158.1 68.1 158.9 65.5 157.4C62.8 155.8 62.2 153 62.4 150.3C63.1 143 66.5 137.1 72.5 132.8C74.8 131.2 77.5 130.2 80.2 131.7C82.9 133.1 83.5 135.8 83.4 138.8Z" fill="#B18AFC"></path>
  <path d="M91.1 190.3C90.6 196 88.2 200.6 83.3 203.6C79.3 206.1 75.6 203.8 75.8 199.1C76.1 193.4 78.7 188.8 83.7 185.9C87.7 183.6 91 185.7 91.1 190.3Z" fill="#DAA660"></path>
  <path d="M110.9 151C111.5 146.6 113.9 142.1 118.8 139.4C122.7 137.3 125.8 139.2 125.9 143.6C126 149.1 123.4 153.4 119 156.6C117.2 157.9 115.2 158.7 113.1 157.6C110.9 156.5 110.8 154.3 110.9 151Z" fill="#F35170"></path>
</svg>
