<?xml version="1.0" encoding="UTF-8"?>
<svg xmlns="http://www.w3.org/2000/svg" width="500" height="500" viewBox="0 0 500 500" fill="none">
  <mask id="mask0_1034_7792" style="mask-type:alpha" maskUnits="userSpaceOnUse" x="0" y="0" width="500" height="500">
    <rect width="500" height="500" fill="#D9D9D9"></rect>
  </mask>
  <g mask="url(#mask0_1034_7792)">
    <path d="M96.1948 121.974C96.1948 93.2085 96.0585 64.5795 96.0585 35.8142C96.0585 25.9985 103.557 18.0915 113.236 16.7282C115.553 16.4555 118.007 16.3192 120.325 16.3192C238.794 16.3192 357.264 16.3192 475.734 16.3192C480.369 16.3192 484.868 16.3192 488.957 19.0458C490.457 21.9087 490.593 24.9079 490.593 27.9071C490.593 112.431 490.593 196.955 490.593 281.478C490.593 295.384 481.459 304.382 467.554 304.382C405.661 304.382 343.768 304.382 281.874 304.382C279.284 304.382 276.694 304.654 274.513 303.018C273.422 301.791 273.149 300.292 273.149 298.792C273.013 290.476 273.013 282.16 273.149 273.844C273.149 272.481 273.558 271.117 274.376 270.027C277.239 267.982 280.647 268.527 283.783 268.527C340.632 268.527 397.345 268.527 454.194 268.527C457.602 268.527 461.01 268.663 464.418 267.845C469.326 266.755 472.053 263.756 472.871 258.848C473.28 256.667 473.143 254.485 473.143 252.168C473.143 187.821 473.143 123.61 473.143 59.2627C473.143 57.8994 473.143 56.5361 473.143 55.1729C472.598 46.5842 468.781 42.767 460.328 42.767C352.493 42.767 244.793 42.767 136.957 42.767C135.048 42.767 133.276 42.767 131.504 43.5849C124.96 46.0388 123.461 47.9474 123.461 54.9002C123.324 74.8042 123.461 94.7082 123.461 114.612C123.461 117.339 123.87 120.065 121.961 122.519C113.236 123.882 104.647 124.564 96.1948 121.974Z" fill="#4C5C75"></path>
    <path d="M274.922 302.745C339.541 302.745 404.161 302.745 468.644 302.745C480.505 302.745 489.094 294.157 489.094 282.296C489.094 197.091 489.094 112.022 489.23 26.8164C489.23 24.2261 487.867 21.6359 489.094 19.0457C495.092 21.9086 498.364 26.8164 499.318 33.2238C499.727 35.6777 500 38.268 500 40.8582C500 123.61 500 206.497 500 289.249C500 292.657 499.864 296.065 498.773 299.337C496.183 307.517 489.094 312.697 480.096 313.243C478.324 313.924 476.415 313.652 474.507 313.652C434.426 313.652 394.345 313.788 354.401 313.515C349.766 313.515 345.403 315.424 340.768 314.606C340.087 314.606 339.405 314.606 338.723 314.606C319.774 314.47 300.688 314.606 281.738 314.606C279.42 314.606 276.966 315.015 274.785 313.515C272.604 309.698 272.331 306.154 274.922 302.745Z" fill="#1D2943"></path>
    <path d="M79.5627 132.199C81.744 124.292 83.9253 123.065 95.9222 122.928C104.511 121.974 113.1 122.928 121.688 122.383C125.642 120.611 129.732 121.429 133.685 121.429C139.956 121.292 146.227 121.292 152.499 121.565C188.08 121.292 223.662 121.429 259.244 121.429C261.152 121.429 262.925 121.565 264.561 122.656C265.651 123.61 266.06 124.973 266.06 126.337C266.197 134.789 266.878 143.241 265.651 151.557C265.379 152.239 264.97 152.784 264.424 153.193C262.107 154.557 259.516 154.284 256.926 154.284C200.35 154.284 143.91 154.284 87.3335 154.284C84.8796 154.284 82.153 154.557 79.9717 153.057C78.6084 146.104 79.2901 139.151 79.5627 132.199Z" fill="#4C5C75"></path>
    <path d="M1.03739 230.219C2.80966 224.221 7.17217 222.176 13.0343 222.176C34.9832 222.176 56.7958 222.039 78.7447 222.039C79.29 221.63 79.8353 221.358 80.3806 221.085C85.4248 220.131 90.4689 220.676 95.5131 220.676C106.01 220.403 116.508 220.54 127.141 220.54C129.323 220.54 131.64 220.403 133.14 222.585C130.822 227.492 131.64 232.809 131.368 237.99C131.231 240.853 131.913 243.852 129.595 246.169C127.55 247.26 125.369 246.987 123.188 246.987C84.8795 246.987 46.5711 246.987 8.2628 246.987C5.94522 246.987 3.4913 247.396 1.03739 245.488C0.492075 241.534 0.901061 237.444 0.764733 233.218C0.764733 232.128 0.628404 231.173 1.03739 230.219Z" fill="#58595B"></path>
    <path d="M273.695 425.169C271.786 431.167 267.015 432.122 261.698 432.122C228.434 432.122 195.169 432.122 162.042 432.122C155.089 432.122 148.136 432.122 141.183 432.122C140.911 431.849 140.774 431.713 140.502 431.44C139.547 428.032 138.866 424.623 141.32 421.488C144.046 419.988 146.909 420.534 149.772 420.534C181.537 420.534 213.165 420.534 244.929 420.534C246.429 420.534 247.929 420.534 249.565 420.534C259.517 420.261 262.788 416.716 263.061 406.901C263.197 401.448 261.834 395.722 264.288 390.405C267.56 388.633 270.695 388.633 273.967 390.405C274.24 401.993 274.649 413.581 273.695 425.169Z" fill="#1D2943"></path>
    <path d="M140.229 464.022C138.457 470.157 135.321 473.02 129.05 473.02C90.0601 473.02 51.0701 473.02 12.0802 473.02C6.62703 473.02 2.6735 470.566 1.03756 465.113C0.628574 464.159 0.628573 463.204 1.58287 462.523C4.30944 461.023 7.17234 461.568 10.0352 461.432C43.1631 461.296 76.2909 461.705 109.419 461.432C111.327 461.432 113.1 461.432 115.008 461.432C124.96 461.023 127.959 457.887 128.096 448.072C128.096 445.073 127.55 441.937 129.595 439.21C133.004 437.575 136.412 437.711 140.229 439.347C140.502 447.527 140.774 455.843 140.229 464.022Z" fill="#1D2943"></path>
    <path d="M273.695 425.169C273.695 413.717 273.695 402.129 273.695 390.677C273.558 389.86 273.286 389.042 273.286 388.087C273.422 385.497 272.604 382.498 275.194 380.589C277.921 379.362 280.92 379.771 283.783 379.771C319.365 379.771 354.81 379.771 390.392 379.771C393.527 379.771 396.936 380.18 399.662 377.999C401.571 374.045 399.935 369.819 401.298 365.866C401.571 365.32 401.98 364.775 402.389 364.23C409.069 364.911 412.477 367.911 412.75 374.318C413.022 379.908 412.75 385.361 412.75 391.223C366.534 391.223 320.864 391.223 274.649 391.223C274.649 400.629 274.649 409.763 274.649 418.898C274.649 420.942 275.467 423.26 273.695 425.169Z" fill="#1D2943"></path>
    <path d="M402.389 364.094C402.389 364.366 402.389 364.639 402.252 364.912C400.344 366.684 397.89 366.547 395.436 366.547C357.4 366.547 319.228 366.547 281.193 366.547C279.011 366.547 276.694 366.684 274.785 365.457C272.195 361.776 272.74 357.959 274.104 354.005C276.285 351.688 279.148 352.233 281.738 352.233C297.552 352.233 313.23 352.233 329.044 352.233C330.68 352.233 332.452 352.233 334.088 352.233C341.177 351.824 344.585 347.87 343.631 340.781C342.677 333.692 340.632 326.876 339.405 319.923C338.996 317.605 338.178 315.288 340.087 313.107C386.302 312.97 432.381 312.97 478.596 312.834C479.142 312.834 479.551 312.97 480.096 313.107C478.188 314.061 476.143 313.652 474.098 313.652C434.426 313.652 394.618 313.652 354.946 313.652C352.902 313.652 350.993 313.652 347.994 313.652C351.675 330.693 355.083 347.189 358.764 364.23C373.215 364.094 387.802 364.094 402.389 364.094Z" fill="#7F8184"></path>
    <path d="M1.0375 232.264C1.0375 236.49 1.0375 240.716 1.0375 244.261C2.53712 245.897 3.76407 245.624 4.99103 245.624C45.7533 245.624 86.5155 245.624 127.414 245.624C128.232 245.624 129.05 245.488 130.004 245.351C133.413 243.306 136.957 243.715 140.638 244.806C142.956 246.442 142.819 248.896 142.819 251.214C142.819 259.802 142.956 268.391 142.683 276.98C142.819 281.206 142.819 285.432 142.683 289.795C142.956 313.788 142.956 337.646 142.683 361.64C142.274 367.502 143.91 373.5 141.456 379.226C140.911 379.635 140.229 379.635 139.684 379.09C138.048 376.499 138.457 373.5 138.457 370.637C138.457 333.011 138.457 295.248 138.457 257.621C138.457 254.894 138.866 252.168 137.639 249.578C135.321 247.669 132.458 248.623 129.868 248.214C89.9237 248.487 50.1158 248.214 10.1715 248.351C7.44494 248.351 4.71837 248.623 2.12813 247.805C1.44649 247.533 0.901173 247.124 0.492188 246.715C0.492188 241.943 0.492188 237.308 0.492188 232.537C0.492188 231.855 0.764845 231.855 1.0375 232.264Z" fill="#BABCBD"></path>
    <path d="M1.17372 462.932C1.17372 463.613 1.03739 464.295 1.03739 464.977C-0.871211 460.069 0.492074 455.025 0.219417 450.117C-0.05324 446.3 0.219417 442.346 0.219417 438.529C0.764731 438.12 1.31005 437.711 1.85536 437.438C4.4456 436.62 7.3085 436.893 9.89875 436.893C49.434 436.893 88.9693 436.893 128.641 436.893C131.367 436.893 134.094 437.166 136.684 436.348C138.184 435.53 138.457 433.757 139.411 432.667C139.956 432.121 140.502 431.985 141.183 432.121L141.047 432.258C141.047 441.119 141.047 449.844 141.047 458.706C141.047 460.478 141.592 462.523 140.229 464.022C140.229 455.979 140.229 447.936 140.229 439.483C136.412 439.483 133.14 439.483 129.868 439.483C127.278 441.664 124.006 441.119 121.007 441.119C84.6068 441.119 48.3434 441.119 11.9437 441.119C9.2171 441.119 6.49053 440.71 3.76396 442.21C2.12802 446.163 3.08232 450.526 2.80966 454.616C2.67333 457.479 3.21865 460.478 1.17372 462.932Z" fill="#C6C9C9"></path>
    <path d="M0.355567 246.442C0.628225 246.442 1.03721 246.578 1.30987 246.578C3.08214 248.487 2.80948 251.077 2.80948 253.395C2.80948 309.289 2.80948 365.32 2.80948 421.215C2.80948 423.26 2.80948 425.305 1.85518 427.213C1.4462 427.895 0.900881 428.168 0.219238 428.168C0.219238 367.638 0.355567 307.108 0.355567 246.442Z" fill="#D1D1D2"></path>
    <path d="M79.8354 222.039C79.4264 222.039 79.1538 222.039 78.7448 222.039C78.7448 194.092 78.7448 166.144 78.7448 138.061C78.7448 136.152 78.0631 133.971 79.5627 132.198C79.6991 138.879 79.6991 145.559 79.8354 152.239C81.4713 154.42 81.335 157.01 81.335 159.601C81.335 178.005 81.335 196.409 81.335 214.814C81.4713 217.268 81.744 219.858 79.8354 222.039Z" fill="#DEDFDF"></path>
    <path d="M121.825 122.928C113.1 122.928 104.511 122.928 95.7859 122.928C95.7859 122.656 95.9222 122.247 96.0585 121.974C104.511 121.974 112.827 121.974 121.279 121.974C121.825 122.11 121.961 122.519 121.825 122.928Z" fill="#6B6C6D"></path>
    <path d="M0.219238 428.304C0.491895 428.304 0.900881 428.304 1.17354 428.304C1.4462 428.577 1.58252 428.713 1.85518 428.986C2.94581 432.258 3.3548 435.393 1.30987 438.393C1.03721 438.393 0.628225 438.529 0.355567 438.529C0.219239 435.121 0.219238 431.712 0.219238 428.304Z" fill="#D9DADA"></path>
    <path d="M1.03739 232.264C0.764735 232.264 0.492078 232.264 0.355749 232.4C0.219421 231.582 0.355748 230.764 1.17372 230.355C1.03739 230.9 1.03739 231.582 1.03739 232.264Z" fill="#D1D1D2"></path>
    <path d="M121.825 122.928C121.825 122.655 121.688 122.246 121.416 121.974C121.416 99.2069 121.552 76.4401 121.552 53.6732C121.552 46.7204 124.142 43.5849 130.55 42.2216C132.185 41.54 133.958 41.949 135.594 41.949C239.885 41.949 344.04 41.949 448.331 41.949C449.967 41.949 451.74 41.6763 453.376 42.2216C455.148 44.1302 455.012 46.5841 455.012 49.038C455.012 111.477 455.148 173.779 455.012 236.217C455.012 246.305 450.922 250.395 440.561 250.395C387.665 250.395 334.906 250.395 282.011 250.395C279.42 250.395 276.83 250.532 274.649 248.896C272.877 246.169 272.74 243.443 274.24 240.716C276.421 238.535 279.284 238.944 282.011 238.944C297.143 238.944 312.276 238.944 327.272 238.944C335.451 238.944 336.406 237.989 336.406 229.946C336.406 210.587 336.406 191.229 336.406 171.87C336.406 168.871 336.815 165.599 333.815 163.554C331.907 162.191 329.589 162.327 327.408 162.327C312.139 162.327 297.007 162.327 281.738 162.327C279.42 162.327 276.966 162.6 274.649 161.1C272.468 158.374 273.149 155.102 273.149 151.966C273.149 149.921 273.013 147.876 274.649 146.24C277.512 144.468 280.647 145.013 283.647 145.013C332.725 145.013 381.939 145.013 431.018 145.013C434.017 145.013 437.152 145.422 439.879 143.923C441.924 139.424 442.197 78.2124 440.152 73.0319C435.108 71.1233 159.997 71.2596 155.089 73.1682C153.453 75.3495 153.862 77.9397 153.862 80.5299C153.862 92.2542 153.862 103.978 153.862 115.703C153.862 118.157 154.271 120.883 152.362 122.928C142.137 122.792 132.049 122.792 121.825 122.928Z" fill="#EAF4FB"></path>
    <path d="M274.785 151.557C275.058 154.42 274.24 157.283 275.331 160.01C277.103 161.236 279.011 160.691 280.92 160.691C297.143 160.691 313.503 160.691 329.726 160.691C331.498 160.691 333.543 160.146 335.042 161.509C332.861 163.827 329.998 163.281 327.408 163.281C312.957 163.418 298.506 163.281 284.056 163.281C281.874 163.281 279.693 163.009 277.648 164.099C276.149 166.281 276.557 168.735 276.557 171.052C276.557 191.501 276.557 211.814 276.557 232.264C276.557 234.99 277.103 237.717 275.058 240.034C275.058 242.488 274.649 245.079 275.467 247.532C276.966 248.759 278.739 248.35 280.375 248.35C334.361 248.35 388.483 248.35 442.469 248.35C449.831 248.35 453.512 244.942 453.512 238.126C453.512 172.824 453.512 107.523 453.512 42.3579C456.784 40.9947 460.192 41.949 463.464 41.8126C466.054 44.6755 465.373 47.9474 465.373 51.083C465.373 98.389 465.373 145.695 465.373 192.865C465.373 210.042 465.373 227.219 465.373 244.397C465.373 256.53 461.692 260.211 449.422 260.211C395.027 260.211 340.632 260.211 286.237 260.211C283.374 260.211 280.511 259.666 277.784 261.165C275.876 263.756 277.375 267.436 275.058 269.754C275.058 280.66 275.194 291.567 275.194 302.473C275.194 305.881 275.194 309.153 275.194 312.561C275.603 313.106 275.876 313.652 276.149 314.333C277.239 326.33 276.557 338.327 276.557 350.324C276.557 351.551 276.012 352.642 275.331 353.596C275.331 357.277 275.331 361.094 275.331 364.775C277.648 370.228 277.512 375.681 275.331 381.134C275.194 383.861 275.058 386.588 275.058 389.178C269.605 389.859 264.015 390.541 258.562 390.677C221.89 390.814 185.354 390.814 148.681 390.677C146.364 390.677 143.91 390.95 141.456 389.45C139.684 386.588 139.547 383.316 141.183 380.044C143.91 377.999 147.045 378.408 150.045 378.408C181.809 378.408 213.574 378.408 245.338 378.408C248.61 378.408 251.746 378.544 255.018 377.726C260.198 376.499 262.516 373.909 263.197 368.592C263.47 366.002 263.47 363.548 263.47 360.958C263.47 294.566 263.47 228.037 263.47 161.645C263.47 158.51 262.925 155.102 265.106 152.239C265.106 151.966 265.106 151.693 265.242 151.557C267.969 149.376 271.377 149.512 274.785 151.557Z" fill="#D3DCE2"></path>
    <path d="M274.785 270.027C274.785 266.482 274.785 262.938 274.785 259.802C277.239 258.303 279.284 258.848 281.329 258.848C338.178 258.848 394.891 258.848 451.74 258.848C460.465 258.848 463.6 255.712 463.6 246.851C463.6 180.732 463.6 114.612 463.6 48.3565C463.6 46.7206 463.6 44.9483 463.6 43.3124C460.056 41.8128 456.648 42.6307 453.376 42.4944C360.263 42.4944 267.151 42.4944 174.038 42.3581C159.588 42.3581 145.137 42.2218 130.686 42.0854C132.731 40.8585 135.048 41.4038 137.23 41.4038C240.43 41.4038 343.631 41.4038 446.832 41.4038C451.876 41.4038 457.057 41.2675 462.101 41.2675C470.008 41.2675 474.37 45.4936 474.779 53.4007C474.779 54.355 474.779 55.4456 474.779 56.3999C474.779 122.383 474.779 188.366 474.779 254.349C474.779 265.664 470.962 269.618 459.51 269.618C399.935 269.618 340.496 269.618 280.92 269.618C278.875 269.89 276.83 270.027 274.785 270.027Z" fill="#D3DCE2"></path>
    <path d="M308.458 290.203C308.595 296.338 303.687 301.382 297.825 301.519C292.099 301.655 286.918 296.338 286.918 290.34C286.918 284.614 291.826 279.57 297.416 279.297C303.278 279.025 308.458 284.205 308.458 290.203Z" fill="#9DA8C8"></path>
    <path d="M274.921 353.732C274.921 340.509 274.921 327.148 274.921 313.925C276.557 312.97 278.193 313.379 279.966 313.379C297.825 313.379 315.684 313.379 333.543 313.379C335.451 313.379 337.224 313.788 339.132 312.97C339.541 312.97 339.814 312.97 340.223 312.97C340.904 322.65 344.176 331.784 345.54 341.327C346.494 348.552 342.54 353.596 335.315 353.732C315.002 353.732 294.962 353.732 274.921 353.732Z" fill="#929497"></path>
    <path d="M338.996 313.107C337.36 314.606 335.451 313.925 333.679 313.925C314.048 313.925 294.553 313.925 274.921 313.925C274.921 313.516 274.921 313.107 274.921 312.834C296.189 312.834 317.592 312.97 338.996 313.107Z" fill="#9B9C9F"></path>
    <path d="M152.362 122.792C152.499 105.342 152.226 87.7556 152.499 70.0328C249.973 70.0328 345.54 70.0328 440.833 70.0328C443.424 71.8051 443.151 73.9864 443.151 76.3039C443.151 97.4349 443.151 118.429 443.151 139.56C443.151 145.695 442.333 146.513 436.062 146.513C382.348 146.513 328.635 146.513 274.922 146.513C272.604 144.332 273.286 141.469 273.422 138.879C273.967 131.653 271.922 125.928 264.561 123.201C229.388 123.201 194.079 123.065 158.906 123.065C156.725 122.928 154.543 122.792 152.362 122.792Z" fill="#0592FB"></path>
    <path d="M264.424 152.511C264.424 224.22 264.424 295.929 264.424 367.638C264.424 376.227 259.789 380.316 249.564 380.316C213.437 380.316 177.174 380.316 141.047 380.316C140.774 380.18 140.638 379.907 140.638 379.635C140.638 379.362 140.774 379.226 140.774 379.226C140.774 373.364 140.911 367.502 140.911 361.639C145.682 359.049 150.862 360.685 155.907 360.276C158.906 360.003 162.041 360.685 165.586 357.822C165.995 336.691 165.722 314.879 165.722 293.884C162.587 290.34 159.315 291.158 156.316 290.885C151.135 290.34 145.818 292.248 140.774 289.522C140.774 285.432 140.774 281.342 140.774 277.252C143.364 274.798 146.5 275.48 149.499 275.48C182.218 275.48 214.801 275.48 247.519 275.48C250.382 275.48 253.245 275.752 255.972 274.389C258.017 270.163 258.426 189.865 256.517 183.322C254.609 181.413 252.155 181.686 249.837 181.686C201.304 181.686 152.907 181.686 104.374 181.686C102.193 181.686 99.8756 181.549 97.967 182.913C96.3311 184.958 96.6037 187.411 96.6037 189.729C96.4674 198.181 96.6037 206.77 96.6037 215.223C96.6037 217.54 96.8764 220.13 94.6951 221.766C89.651 221.766 84.7431 221.766 79.699 221.766C79.699 198.454 79.699 175.278 79.8353 151.966C139.275 151.966 198.85 151.966 258.289 152.102C260.334 152.375 262.379 152.375 264.424 152.511Z" fill="#EAF4FB"></path>
    <path d="M203.758 137.788C203.213 140.787 200.895 141.333 198.441 141.333C184.127 141.333 169.812 141.333 155.634 141.333C153.044 141.333 150.999 140.651 150.317 137.652C150.999 134.925 153.18 134.38 155.498 134.38C169.948 134.244 184.399 134.38 198.85 134.38C201.168 134.38 203.213 135.062 203.758 137.788Z" fill="#909295"></path>
    <path d="M264.561 123.201C270.832 123.61 274.376 127.018 274.649 133.426C274.785 137.788 274.785 142.151 274.785 146.649C274.785 148.422 274.649 150.058 274.649 151.83C271.241 151.83 267.832 151.966 264.424 151.966C264.561 142.151 264.561 132.608 264.561 123.201Z" fill="#1D2943"></path>
    <path d="M214.255 140.514C213.301 135.879 213.301 135.879 217.663 134.516C219.708 135.607 220.799 137.106 219.708 139.424C218.481 141.605 216.573 141.878 214.255 140.514Z" fill="#8E9093"></path>
    <path d="M94.8315 221.903C94.8315 210.315 94.8315 198.727 94.8315 187.275C94.8315 181.277 95.7858 180.323 101.512 180.323C151.953 180.323 202.395 180.323 252.973 180.323C257.744 180.323 259.653 181.959 259.653 186.866C259.516 214.677 259.653 242.625 259.516 270.436C259.516 276.434 258.835 277.252 252.7 277.252C215.482 277.252 178.265 277.252 141.047 277.252C141.047 268.391 141.047 259.666 140.911 250.805C140.911 249.032 141.32 247.124 140.229 245.351C138.048 243.579 138.457 240.989 138.593 238.808C139.002 232.673 138.32 226.947 133.004 222.857C131.368 221.358 129.459 222.039 127.687 222.039C116.78 222.039 105.738 222.039 94.8315 221.903Z" fill="#0592FB"></path>
    <path d="M133.14 222.993C137.911 224.22 140.093 227.492 140.229 232.264C140.365 236.626 140.365 241.125 140.365 245.488C136.821 245.488 133.412 245.488 129.868 245.351C129.868 238.262 129.868 231.309 129.868 224.629C130.686 222.993 131.913 223.13 133.14 222.993Z" fill="#1D2943"></path>
    <path d="M91.5597 232.536C92.6503 236.353 90.469 237.171 88.1515 237.171C75.6092 237.308 63.067 237.171 51.0701 237.171C49.0252 235.672 48.7525 234.309 49.9795 232.4C63.6123 232.536 77.3815 232.536 91.5597 232.536Z" fill="#919395"></path>
    <path d="M101.512 231.309C106.011 232.672 106.011 234.581 103.42 237.444C99.6031 236.217 99.4668 234.445 101.512 231.309Z" fill="#8C8E91"></path>
    <path d="M264.561 390.678C264.561 396.267 264.561 401.856 264.561 407.446C264.561 418.08 260.607 422.033 249.701 422.033C214.664 422.033 179.628 422.033 144.591 422.033C143.364 422.033 142.274 422.033 141.047 422.033C140.502 421.624 140.093 420.942 139.956 420.397C139.411 410.854 139.275 401.448 140.093 391.905C140.093 391.496 140.365 390.95 140.229 391.087C142.138 389.587 143.773 389.996 145.137 389.996C183.445 389.996 221.753 389.996 260.062 389.996C261.698 389.996 263.197 389.451 264.561 390.678Z" fill="#4C5C75"></path>
    <path d="M264.561 390.677C223.662 390.677 182.763 390.677 141.047 390.677C141.047 401.311 141.047 411.672 141.047 422.169C140.911 425.441 140.502 428.849 141.32 432.121C140.911 432.258 140.502 432.258 140.093 432.394C138.32 430.622 138.457 428.304 138.457 426.123C138.457 412.49 138.32 398.993 138.457 385.361C138.457 383.179 138.32 380.862 140.229 379.226C140.502 379.226 140.774 379.226 141.047 379.226C141.183 379.498 141.183 379.907 141.183 380.18C141.183 383.043 140.638 385.906 141.729 389.314C186.035 389.314 230.342 389.314 274.649 389.314C274.376 389.723 274.104 390.132 273.831 390.541C270.695 390.677 267.56 390.677 264.561 390.677Z" fill="#BBBEBE"></path>
    <path d="M1.17371 462.932C1.17371 455.297 1.17371 447.663 1.17371 440.437C2.40066 438.938 3.62762 439.347 4.85458 439.347C45.8895 439.347 86.7881 439.347 127.823 439.347C128.505 439.347 129.186 439.483 129.868 439.483C129.868 442.755 129.595 446.027 129.868 449.163C130.822 458.024 125.369 462.932 115.962 462.932C100.83 462.795 85.6974 462.932 70.565 462.932C47.3891 462.932 24.3496 462.932 1.17371 462.932Z" fill="#4C5C75"></path>
    <path d="M274.921 381.271C274.921 375.818 274.921 370.365 274.921 364.911C317.456 364.911 359.854 364.911 402.389 364.911C402.389 369.547 402.389 374.045 402.389 378.135C399.935 381.543 396.799 381.134 393.664 381.134C353.992 381.271 314.457 381.271 274.921 381.271Z" fill="#4C5C75"></path>
    <path d="M1.17371 428.304C1.17371 369.956 1.17371 311.607 1.17371 253.258C1.17371 251.077 1.17371 248.896 1.31004 246.578C44.1172 246.578 86.9244 246.578 129.732 246.578C131.64 248.487 131.368 250.941 131.368 253.258C131.368 307.381 131.368 361.367 131.368 415.489C131.368 425.714 127.278 429.668 117.053 429.804C80.7896 429.94 44.6625 429.804 8.39912 429.804C5.94521 429.94 3.35496 430.077 1.17371 428.304Z" fill="#EAF4FB"></path>
    <path d="M1.17371 428.304C40.4363 428.304 79.699 428.304 118.962 428.304C126.051 428.304 129.732 424.76 129.732 417.671C129.732 360.685 129.732 303.7 129.732 246.715C132.867 246.578 136.139 246.169 140.093 247.124C140.093 291.158 140.093 335.192 140.093 379.226C140.093 396.949 140.093 414.672 139.956 432.258C139.82 434.03 140.365 435.939 139.002 438.256C93.1955 438.256 47.2528 438.256 1.17371 438.256C1.31003 434.985 1.17371 431.576 1.17371 428.304Z" fill="#D3DCE2"></path>
    <path d="M141.047 289.522C149.636 290.067 158.497 288.431 167.222 290.612C167.222 314.061 167.222 336.555 167.222 358.913C165.722 361.503 163.269 361.503 160.815 361.503C154.135 361.503 147.591 361.503 140.911 361.503C141.047 337.646 141.047 313.652 141.047 289.522Z" fill="#FEC81D"></path>
    <path d="M363.399 237.172C363.399 217.131 363.399 196.682 363.399 176.096C363.399 160.01 361.627 161.782 377.85 161.782C397.209 161.782 416.567 161.782 435.926 161.782C442.47 161.782 443.015 162.464 443.015 168.735C443.015 190.275 443.015 211.951 443.015 233.491C443.015 239.762 442.197 240.58 435.926 240.58C413.977 240.58 392.164 240.58 370.215 240.58C368.034 240.307 365.444 240.58 363.399 237.172Z" fill="#FEC81D"></path>
    <path d="M274.785 240.307C274.785 214.405 274.785 188.366 274.785 161.646C295.098 161.646 315.002 161.646 334.906 161.646C337.224 163.009 337.905 165.054 337.905 167.644C337.905 189.729 337.769 211.815 337.905 234.036C337.905 238.535 335.997 240.444 331.498 240.444C312.548 240.307 293.735 240.307 274.785 240.307Z" fill="#FEC81D"></path>
    <path d="M233.887 54.4915C232.796 56.9454 231.024 57.7634 228.842 57.7634C197.078 57.7634 165.313 57.7634 133.549 57.7634C132.458 57.7634 131.504 57.627 130.686 56.6727C129.595 51.6286 131.231 49.5837 136.548 49.5837C150.454 49.4473 164.359 49.5837 178.401 49.5837C194.488 49.5837 210.711 49.5837 226.798 49.5837C230.206 49.4473 233.205 50.129 233.887 54.4915Z" fill="#FEFEFE"></path>
    <path d="M249.837 51.7648C250.382 53.6734 250.655 55.3093 249.428 56.9453C247.519 58.3086 245.475 57.6269 243.43 57.3543C241.248 53.9461 242.612 51.9011 245.066 50.1289C246.974 49.4472 248.201 50.5378 249.837 51.7648Z" fill="#D3EDFF"></path>
    <path d="M183.036 292.112C184.808 289.522 187.126 289.522 189.307 289.522C209.211 289.522 228.979 289.522 248.883 289.522C251.064 289.522 253.382 289.385 255.29 291.976C255.29 314.061 255.29 336.828 255.29 359.186C253.382 361.776 250.928 361.64 248.474 361.64C228.979 361.64 209.484 361.64 189.853 361.64C187.399 361.64 185.081 361.776 183.036 359.186C183.036 337.1 183.036 314.606 183.036 292.112Z" fill="#FEC81D"></path>
    <path d="M70.1559 417.807C56.5231 417.807 43.0265 417.807 29.3937 417.807C22.8499 417.807 21.7593 416.716 21.7593 410.036C21.7593 387.269 21.7593 364.502 21.7593 341.736C21.7593 335.328 22.8499 334.374 29.121 334.374C56.7957 334.374 84.4704 334.374 112.145 334.374C118.144 334.374 119.234 335.601 119.234 341.599C119.234 364.775 119.234 387.815 119.234 410.99C119.234 416.58 117.871 417.943 112.281 417.943C98.2396 417.807 84.1978 417.807 70.1559 417.807Z" fill="#FEC81D"></path>
    <path d="M70.156 325.103C56.2505 325.103 42.345 324.967 28.3031 325.103C23.3953 325.103 21.623 323.058 21.623 318.423C21.7594 303.427 21.7594 288.567 21.623 273.571C21.623 268.8 23.5316 266.891 28.3031 266.891C56.3868 267.027 84.3342 266.891 112.418 266.891C118.007 266.891 119.234 268.118 119.234 273.844C119.234 288.567 119.234 303.427 119.234 318.151C119.234 323.74 118.007 324.967 112.282 324.967C98.2397 325.103 84.1979 325.103 70.156 325.103Z" fill="#0592FB"></path>
    <circle cx="102.997" cy="234.703" r="3.87205" fill="#9DA8C8"></circle>
    <circle cx="216.061" cy="137.902" r="3.87205" fill="#9DA8C8"></circle>
    <rect x="48.0135" y="230.831" width="44.1414" height="7.74411" rx="3.87205" fill="#9DA8C8"></rect>
    <rect x="150.236" y="134.03" width="53.4344" height="7.74411" rx="3.87205" fill="#9DA8C8"></rect>
    <rect x="129.327" y="49.6189" width="104.545" height="7.74411" rx="3.87205" fill="#D3EDFF"></rect>
    <rect x="51.1111" y="444.568" width="44.1414" height="14.7138" rx="7.3569" fill="#9DA8C8"></rect>
    <rect x="154.108" y="401.201" width="46.4647" height="14.7138" rx="7.3569" fill="#9DA8C8"></rect>
  </g>
</svg>
