<?xml version="1.0" encoding="UTF-8"?>
<svg xmlns="http://www.w3.org/2000/svg" width="500" height="500" viewBox="0 0 500 500" fill="none">
  <mask id="mask0_1034_7732" style="mask-type:alpha" maskUnits="userSpaceOnUse" x="0" y="0" width="500" height="500">
    <rect width="500" height="500" fill="#D9D9D9"></rect>
  </mask>
  <g mask="url(#mask0_1034_7732)">
    <path d="M21.725 80.9041C21.725 80.6663 21.725 80.3095 21.725 80.0717C23.3897 78.1692 25.6489 78.2881 27.9081 78.2881C31.4753 78.1692 35.0425 78.8827 38.3719 77.6936C39.9177 75.91 39.561 73.8886 39.561 72.105C39.561 61.6412 39.561 51.0585 39.561 40.5947C39.561 35.9573 39.9177 31.32 41.1068 27.0393C44.3173 15.3865 50.976 7.06298 62.8667 3.73359C63.4612 3.49578 62.3911 3.37687 62.8667 3.73359C62.9856 3.8525 62.9856 3.97141 62.6289 4.09031C60.3697 4.56594 58.1104 5.39829 55.6134 5.16047C54.0676 4.92266 72.736 1.47437 80.8216 1.59327C201.869 2.78234 322.916 1.71218 443.963 1.47437C456.567 1.47437 466.317 6.11173 473.69 16.2188C477.138 20.9751 477.732 26.4448 477.851 31.7956C478.089 47.4913 477.97 63.187 477.97 79.0016C477.97 79.4772 477.732 79.8339 477.613 80.3096C476.424 81.7364 474.879 81.8553 473.214 81.8553C470.717 81.9742 468.22 81.8553 465.604 81.8553C328.148 81.8553 190.691 81.8553 53.2353 81.8553C49.4303 81.8553 45.5063 81.8553 41.7013 82.2121C36.5883 83.0444 31.3564 82.5688 26.2434 82.6877C24.3409 82.6877 22.914 82.0932 21.725 80.9041Z" fill="#0592FB"></path>
    <path d="M50.2626 428.944C36.945 427.279 28.1459 420.026 23.3897 407.541C22.7951 405.995 22.3195 404.568 21.725 403.022C21.725 295.65 21.725 188.277 21.725 80.7851C28.2648 80.1906 34.8047 80.4284 41.3446 80.6662C42.8904 81.7364 43.1282 83.2822 43.1282 84.9469C43.2471 87.325 43.1282 89.7031 43.1282 92.0813C43.1282 190.655 43.1282 289.229 43.1282 387.802C43.1282 392.678 43.4849 397.553 44.3173 402.428C45.982 412.773 52.284 419.669 61.3209 424.426C63.2234 425.377 65.7205 425.734 66.5528 429.182C60.8453 429.182 55.6134 429.776 50.2626 428.944Z" fill="#D3DCE2"></path>
    <path d="M22.5573 28.2284C24.8166 14.4352 37.1829 3.8525 51.6895 3.25797C56.089 3.25797 74.9952 1.47437 79.3948 1.47437C74.7574 3.97141 55.9701 8.25205 52.0462 11.7003C43.8416 19.0726 41.7013 28.704 41.4635 38.93C41.2257 50.8207 41.4635 62.5924 41.3446 74.4831C41.3446 76.0289 41.5824 77.6936 40.5122 79.9528C34.3291 79.9528 28.027 79.9528 21.725 79.9528C21.725 63.4248 22.0817 28.704 22.5573 28.2284Z" fill="#0584E2"></path>
    <path d="M50.2626 428.944C55.1378 428.944 60.013 428.944 64.8881 428.944C60.8453 426.566 56.6836 424.663 53.1164 421.691C43.7227 413.962 41.3446 403.617 41.3446 392.321C41.3446 341.191 41.3446 289.942 41.3446 238.812C41.3446 186.136 41.3446 133.461 41.3446 80.904C43.366 80.0717 45.5063 80.4284 47.5278 80.4284C188.789 80.4284 330.05 80.4284 471.311 80.4284C473.333 80.4284 475.473 80.1906 477.495 80.0717C477.495 185.661 477.495 291.25 477.495 396.839C477.495 412.416 467.506 425.02 452.643 428.468C450.265 429.063 447.887 428.944 445.628 428.944C324.105 428.944 202.701 428.944 81.1784 428.944C72.4982 428.944 63.818 430.371 55.0189 429.776C53.3542 429.658 51.5706 430.133 50.2626 428.944Z" fill="#EAF4FB"></path>
    <path d="M327.196 48.9182C294.021 48.9182 260.846 48.9182 227.553 48.9182C226.126 48.9182 224.58 49.0371 223.153 48.7992C219.705 48.3236 216.97 45.1131 216.97 41.6648C216.97 38.4544 219.943 35.0061 223.272 34.6493C224.461 34.5304 225.65 34.5304 226.839 34.5304C293.665 34.5304 360.49 34.5304 427.435 34.5304C430.051 34.5304 433.023 34.1737 434.926 36.4329C436.828 38.5733 438.136 41.0703 436.71 44.1619C435.402 47.2535 433.38 48.9182 429.932 48.9182C422.916 48.9182 416.02 48.9182 409.004 48.9182C381.775 48.9182 354.426 48.9182 327.196 48.9182Z" fill="#056BB7"></path>
    <path d="M127.314 53.3177C120.418 53.3177 115.305 48.4425 115.186 41.9026C115.067 35.3628 120.299 30.1309 126.958 30.1309C133.854 30.1309 138.967 35.006 139.086 41.6648C139.205 48.2047 134.092 53.3177 127.314 53.3177Z" fill="#056BB7"></path>
    <path d="M173.569 53.3177C166.791 53.4366 161.559 48.4425 161.44 41.9026C161.322 35.2438 166.435 30.1309 173.212 30.1309C179.752 30.0119 185.222 35.3627 185.103 41.7837C185.103 48.4425 180.228 53.3177 173.569 53.3177Z" fill="#056BB7"></path>
    <path d="M80.8217 30.1309C87.5994 30.012 92.8313 35.006 92.9502 41.5459C93.0691 48.2047 88.075 53.3177 81.2973 53.3177C74.6385 53.4366 69.2877 48.2047 69.2877 41.6648C69.2877 35.3628 74.5196 30.1309 80.8217 30.1309Z" fill="#056BB7"></path>
    <path d="M189.146 449.277C179.752 442.024 171.072 446.899 162.392 451.061C161.797 451.299 161.322 451.536 160.727 451.536C147.172 451.061 131.595 429.182 138.61 418.005C148.48 402.19 146.102 388.991 139.086 372.701C132.546 357.481 126.006 346.066 108.646 342.737C99.609 341.072 95.5661 333.819 95.685 324.544C95.8039 316.934 95.685 309.443 95.685 301.833C95.8039 293.272 99.609 286.256 107.814 284.829C126.958 281.5 133.497 268.301 140.275 252.13C146.458 237.385 148.48 225.257 139.324 211.583C134.092 203.616 135.876 195.292 142.653 188.515C147.885 183.402 151.69 176.148 160.133 174.84C162.154 175.792 164.532 176.505 166.316 177.813C174.045 183.402 181.774 182.926 189.502 177.932C208.528 180.191 223.034 166.755 240.395 162.95C244.318 162.117 246.697 159.145 248.242 155.34C250.145 150.464 251.81 145.47 253.474 140.595C255.139 135.244 257.993 131.202 263.344 129.299C266.792 129.18 270.24 129.18 273.807 129.061C279.991 128.705 284.509 131.558 285.222 137.504C287.957 157.48 300.324 165.566 318.279 173.057C336.233 180.548 350.383 182.807 366.198 171.154C371.43 167.349 376.543 169.014 380.942 173.651C386.769 179.716 392.595 185.78 398.897 191.487C403.772 196.006 405.318 200.881 402.94 207.064C399.373 213.723 395.925 220.382 392.239 226.922C389.86 231.083 391.168 234.769 393.309 238.455C399.373 249.157 404.129 260.334 407.221 272.106C408.648 277.457 411.62 280.548 417.09 281.856C423.273 283.521 429.1 286.137 435.283 287.802C442.06 289.585 444.558 293.985 444.558 300.644C444.439 309.324 444.439 318.123 444.558 326.803C444.558 333.105 442.179 337.98 435.64 338.932C415.663 341.785 387.958 376.15 399.73 415.508C406.983 427.517 406.27 428.112 396.519 437.862C391.406 442.975 386.174 448.088 381.061 453.32C376.662 457.838 371.549 459.741 366.317 455.936C350.264 444.164 335.758 446.661 317.565 454.39C300.205 461.762 288.671 469.61 285.341 488.754C283.082 501.715 271.667 497.316 263.225 497.91C258.112 496.364 255.139 492.797 253.712 487.684C253.118 485.425 252.047 483.284 251.572 481.144C249.55 470.324 243.367 463.665 232.428 461.525C229.336 460.93 226.364 459.384 223.51 458.195C212.451 453.558 201.988 447.018 189.146 449.277Z" fill="#0592FB"></path>
    <path d="M160.014 175.078C154.782 180.548 149.669 186.018 144.437 191.368C139.086 196.719 137.184 202.902 141.702 209.323C151.809 223.83 153.355 237.98 143.01 253.2C139.205 258.789 137.778 266.042 135.757 272.701C134.449 276.981 131.952 279.716 127.909 281.262C126.244 281.856 124.579 282.451 122.915 282.927C95.3283 292.082 99.2523 288.872 99.0145 315.745C99.0145 319.193 99.2523 322.76 99.0145 326.209C98.5388 332.986 101.393 338.218 108.051 339.051C128.266 341.904 138.61 354.152 142.415 373.296C142.891 375.555 143.604 378.052 145.031 379.717C155.495 391.845 150.858 403.022 143.723 414.556C136.946 425.615 137.421 428.944 146.815 437.862C151.809 442.618 155.376 449.039 162.63 450.942C148.599 461.049 145.507 460.811 133.973 449.277C128.979 444.283 124.104 439.408 119.11 434.533C114.829 430.371 113.283 425.377 116.969 420.502C128.622 404.687 126.958 390.299 118.991 372.107C111.381 354.627 103.533 342.38 84.1511 339.526C77.3734 338.575 74.6386 333.7 74.8764 326.922C75.1142 318.242 74.9953 309.443 74.8764 300.763C74.7575 294.461 77.0167 289.467 83.4377 288.515C103.057 285.543 114.948 275.079 118.158 255.221C118.396 253.794 118.991 252.368 119.942 251.297C132.427 235.602 126.601 221.452 116.613 207.54C113.759 201.357 115.661 196.481 120.418 192.082C125.293 187.563 129.811 182.688 134.568 177.932C145.031 166.874 146.934 166.636 160.014 175.078Z" fill="#0584E2"></path>
    <path d="M263.106 129.537C256.566 136.315 255.02 145.47 252.523 153.913C250.145 161.761 245.626 166.16 237.779 167.825C228.147 169.846 218.991 173.77 210.787 179.121C203.058 184.234 196.399 180.429 189.384 178.17C197.707 171.987 207.457 169.252 217.089 166.398C223.153 164.733 226.601 161.404 228.147 155.459C228.385 154.388 228.861 153.199 229.217 152.129C237.66 127.159 231.714 128.586 263.106 129.537Z" fill="#0584E2"></path>
    <path d="M189.146 449.277C198.539 444.045 206.863 445.71 215.9 451.18C222.915 455.46 231.239 457.957 239.324 460.336C246.34 462.476 250.502 466.281 252.761 473.534C255.377 481.977 256.328 491.37 263.225 498.029C262.987 498.148 262.63 498.267 262.392 498.267C231.596 499.456 236.709 499.099 229.931 476.388C227.196 467.113 222.083 461.881 212.689 459.622C204.247 457.601 196.042 454.628 189.146 449.277Z" fill="#0584E2"></path>
    <path d="M261.322 234.413C298.778 233.937 333.736 264.615 338.255 301.952C343.368 344.401 317.803 382.095 277.731 391.132C271.786 392.44 265.722 393.629 259.657 392.915C221.369 386.613 198.42 363.545 191.286 327.636C184.152 291.845 207.695 237.266 261.322 234.413Z" fill="#EAF4FB"></path>
    <path d="M261.322 234.413C247.767 237.98 234.925 242.498 223.629 251.416C189.978 277.814 183.557 327.041 209.241 361.167C220.775 376.506 235.757 385.9 253.95 390.894C255.852 391.37 257.755 392.202 259.539 392.915C215.543 394.104 178.682 357.006 179.395 312.297C180.109 268.182 217.921 232.153 261.322 234.413Z" fill="#D3DCE2"></path>
    <path d="M260.014 392.915C255.734 393.153 251.572 392.083 247.172 391.013C246.221 380.668 249.194 370.68 248.005 360.097C226.839 350.109 214.711 333.938 216.375 309.8C217.446 294.58 226.245 280.905 237.541 274.96C237.541 280.43 237.66 285.543 237.541 290.537C237.422 293.866 238.611 296.363 241.108 298.504C247.41 303.854 253.474 309.324 259.657 314.794C262.987 317.766 265.841 317.529 269.051 314.675C275.234 309.205 281.417 303.973 287.719 298.622C291.762 299.693 291.168 303.26 291.049 305.995C290.573 321.334 285.104 334.651 273.926 345.472C262.749 356.292 258.468 369.491 261.084 384.83C261.441 387.565 262.154 390.418 260.014 392.915Z" fill="#FED300"></path>
    <path d="M260.014 392.915C260.728 387.684 258.944 382.689 258.825 377.576C258.468 364.497 263.225 353.557 272.499 344.758C283.914 334.057 288.79 320.62 289.86 305.4C289.979 303.141 289.503 300.525 287.719 298.503C290.098 296.125 291.168 293.272 290.93 289.823C290.692 285.067 290.93 280.311 290.93 274.365C304.01 283.283 310.431 295.055 312.214 309.443C313.522 320.382 310.787 330.727 304.842 340.121C299.016 349.396 290.573 355.341 280.704 359.859C279.158 370.323 282.369 380.43 281.417 390.894C274.521 393.272 267.267 393.51 260.014 392.915Z" fill="#E5BE00"></path>
  </g>
</svg>
